<svg width="25" height="28" viewBox="0 0 25 28"  fill="none" xmlns="http://www.w3.org/2000/svg">
<path fill-rule="evenodd" clip-rule="evenodd" d="M13.3167 9.85163L12.1667 11.1741C12 11.3658 12 11.6629 12.1667 11.8546L13.3167 13.1771C13.55 13.4454 13.9417 13.3208 14.025 12.9566C14.1167 12.4775 14.1667 11.9983 14.1667 11.5C14.1667 11.0112 14.1167 10.5321 14.0167 10.0816C13.9417 9.71747 13.55 9.5833 13.3167 9.85163ZM16.75 7.4558C16.5417 6.92872 15.9333 6.81372 15.5833 7.2258C15.3667 7.47497 15.325 7.83914 15.4417 8.16497C15.825 9.19039 16.0417 10.3116 16.0417 11.4904C16.0417 12.6787 15.825 13.8096 15.4333 14.835C15.3167 15.1416 15.3583 15.4962 15.5667 15.7358C15.9083 16.1287 16.4834 16.0137 16.6917 15.5154C17.2167 14.2696 17.5084 12.8704 17.5084 11.3946C17.5 10.005 17.2334 8.6633 16.75 7.4558ZM9.50835 11.5L12.5 8.06913C12.825 7.69538 12.825 7.09163 12.5 6.7083L8.92502 2.59705C8.40002 1.9933 7.50002 2.41497 7.50002 3.26788V9.19039L4.25835 5.46247C3.93335 5.08872 3.40835 5.08872 3.08335 5.46247C2.75835 5.83622 2.75835 6.43997 3.08335 6.81372L7.15835 11.5L3.08335 16.1862C2.75835 16.56 2.75835 17.1637 3.08335 17.5375C3.40835 17.9112 3.93335 17.9112 4.25835 17.5375L7.50002 13.8096V19.7321C7.50002 20.585 8.40002 21.0162 8.92502 20.4125L12.5 16.2916C12.825 15.9179 12.825 15.3141 12.5 14.9308L9.50835 11.5ZM9.16668 5.58705L10.7333 7.38872L9.16668 9.19039V5.58705ZM9.16668 17.4129V13.8096L10.7333 15.6112L9.16668 17.4129Z" fill="white"/>
</svg>
