<svg width="25" height="25" viewBox="0 0 25 25" fill="none" xmlns="http://www.w3.org/2000/svg">
<path fill-rule="evenodd" clip-rule="evenodd" d="M0 3.40909C0 1.52631 1.52631 0 3.40909 0H19.3182C21.201 0 22.7273 1.52631 22.7273 3.40909V8.14853C24.0514 8.61652 25 9.8793 25 11.3636V21.5909C25 23.4737 23.4737 25 21.5909 25H18.1818C16.299 25 14.7727 23.4737 14.7727 21.5909V20.4545H7.95455C7.32695 20.4545 6.81818 19.9458 6.81818 19.3182C6.81818 18.6906 7.32695 18.1818 7.95455 18.1818H10.2273V15.9091H3.40909C1.52631 15.9091 0 14.3828 0 12.5V3.40909ZM12.5 15.9091V18.1818H14.7727V15.9091H12.5ZM14.7727 13.6364V11.3636C14.7727 9.48085 16.299 7.95455 18.1818 7.95455H20.4545V3.40909C20.4545 2.7815 19.9458 2.27273 19.3182 2.27273H3.40909C2.7815 2.27273 2.27273 2.7815 2.27273 3.40909V12.5C2.27273 13.1276 2.7815 13.6364 3.40909 13.6364H14.7727ZM17.0455 21.5909C17.0455 22.2185 17.5542 22.7273 18.1818 22.7273H21.5909C22.2185 22.7273 22.7273 22.2185 22.7273 21.5909V11.3636C22.7273 10.736 22.2185 10.2273 21.5909 10.2273H18.1818C17.5542 10.2273 17.0455 10.736 17.0455 11.3636V21.5909Z" fill="#293644"/>
</svg>
