<svg width="25" height="28" viewBox="0 0 25 28" fill="none" xmlns="http://www.w3.org/2000/svg">
<path d="M9.46155 7.61536H11L12.5385 5.97689L14.0769 9.25382L15.6154 5.15765L17.1539 7.61536" stroke="#5C5470" stroke-width="2" stroke-miterlimit="10" stroke-linecap="round" stroke-linejoin="round"/>
<path d="M1 19.9038L3 16.463C4.15385 14.5788 6.07692 13.3499 8.23077 13.3499H13.3077C13.3077 15.1522 11.9231 16.6268 10.2308 16.6268H8.69231" stroke="#5C5470" stroke-width="2" stroke-miterlimit="10" stroke-linecap="round" stroke-linejoin="round"/>
<path d="M10.2308 16.6268H16.3846L17.3077 15.3161C18.1538 14.0872 19.5384 13.3499 21 13.3499L18.9231 17.2822C17.8461 19.4122 15.6923 20.723 13.4615 20.723C9.84614 20.723 6.30768 21.8699 3.30768 24" stroke="#5C5470" stroke-width="2" stroke-miterlimit="10" stroke-linecap="round" stroke-linejoin="round"/>
<path d="M11.0769 13.3499L7.69231 9.49955L6.76923 8.43455C5.23077 6.71416 5.23077 4.01068 6.76923 2.29029C8.30769 0.569902 10.8462 0.569902 12.3846 2.29029L13.1538 3.10953C13.2308 3.19145 13.3846 3.19145 13.4615 3.10953L14.2308 2.29029C15.7692 0.569902 18.3077 0.569902 19.8462 2.29029C21.3846 4.01068 21.3846 6.71416 19.8462 8.43455L18.9231 9.49955L15.6154 13.1042L13.4615 15.48" stroke="#5C5470" stroke-width="2" stroke-miterlimit="10" stroke-linecap="round" stroke-linejoin="round"/>
</svg>
