<svg width="300" height="213" viewBox="0 0 248 175" fill="none" xmlns="http://www.w3.org/2000/svg">
<path opacity="0.1" d="M83.0288 174.902C95.0602 174.902 104.814 173.335 104.814 171.403C104.814 169.47 95.0602 167.904 83.0288 167.904C70.9973 167.904 61.2439 169.47 61.2439 171.403C61.2439 173.335 70.9973 174.902 83.0288 174.902Z" fill="#DBD8E3"/>
<path opacity="0.1" d="M201.448 175C216.462 175 228.632 173.433 228.632 171.501C228.632 169.569 216.462 168.002 201.448 168.002C186.435 168.002 174.264 169.569 174.264 171.501C174.264 173.433 186.435 175 201.448 175Z" fill="#DBD8E3"/>
<path opacity="0.1" d="M3.98676 75.6135H26.6771V106.54H5.6479C5.59201 106.858 5.53835 107.177 5.48022 107.497H26.6771V132.439C26.6391 132.428 26.6055 132.414 26.5698 132.401C25.9706 132.164 25.3759 131.913 24.7812 131.645L24.4011 131.473C23.8049 131.191 23.2087 130.893 22.6125 130.579C22.4046 130.469 22.1967 130.355 21.991 130.239C18.6812 128.385 15.6744 126.036 13.075 123.272C12.999 123.199 12.9274 123.12 12.8514 123.049C12.4892 122.655 12.1337 122.257 11.7894 121.85L11.4094 121.403C11.0025 120.905 10.609 120.393 10.2267 119.874C10.1708 119.798 10.1171 119.722 10.059 119.651C8.50414 117.495 7.21313 115.16 6.21354 112.697C6.18224 112.624 6.15541 112.543 6.12634 112.474C5.8193 111.684 5.54729 110.886 5.31031 110.082C5.20746 109.744 5.10909 109.411 5.02413 109.06C4.99283 108.957 4.966 108.856 4.94141 108.756C3.67152 103.799 3.52173 98.6504 3.52173 93.5373C3.52173 92.9404 3.52173 92.3412 3.52173 91.7487C3.52173 89.6807 3.54632 87.5992 3.58209 85.52C3.58209 84.9812 3.60445 84.4446 3.61563 83.9036C3.64693 82.5308 3.69164 81.1581 3.74977 79.7854C3.76319 79.4031 3.78107 79.023 3.80119 78.6429C3.80119 78.4238 3.81237 78.2047 3.83473 77.9856C3.88839 77.1897 3.9331 76.4005 3.98676 75.6135Z" fill="#DBD8E3"/>
<path opacity="0.1" d="M26.6772 41.1788H14.231C16.2542 38.012 18.4648 34.969 20.8509 32.066C22.6999 29.7945 24.6517 27.5811 26.6772 25.4482V41.1788Z" fill="#DBD8E3"/>
<path opacity="0.1" d="M26.6771 42.136V74.6568H4.05835C4.05835 74.5629 4.074 74.4667 4.08071 74.3728C4.10083 74.1157 4.12095 73.8586 4.14331 73.6038C4.1679 73.3042 4.19473 73.0023 4.22379 72.7095C4.25286 72.4166 4.28416 72.0589 4.31769 71.7347C4.35123 71.4105 4.38253 71.0819 4.42054 70.7577C4.45854 70.4335 4.49208 70.1093 4.53232 69.7874C4.57257 69.4654 4.60834 69.139 4.65082 68.8171C4.68435 68.5488 4.72012 68.2827 4.75589 68.0145C4.80731 67.6366 4.86097 67.2565 4.9191 66.8809C4.9191 66.825 4.93475 66.7669 4.94369 66.7133C5.35176 63.9637 5.90777 61.2381 6.60931 58.5484C7.34365 55.7269 8.28138 52.9623 9.41514 50.2762C10.6201 47.4663 12.031 44.7493 13.6362 42.1472L26.6771 42.136Z" fill="#DBD8E3"/>
<path opacity="0.1" d="M32.0945 75.6113V106.54H80.5582V75.6113H32.0945ZM32.0945 107.495V134.055C32.3717 134.113 32.6467 134.169 32.9195 134.216C33.2906 134.288 33.6595 134.353 34.0373 134.408C34.1089 134.42 34.1826 134.431 34.2609 134.438C34.4085 134.462 34.5605 134.482 34.708 134.502C35.0814 134.554 35.4525 134.596 35.8259 134.63C36.0025 134.648 36.1814 134.663 36.3602 134.677L36.7917 134.71C37.0265 134.728 37.259 134.742 37.4893 134.748C37.6324 134.748 37.7754 134.762 37.923 134.766C38.0348 134.766 38.1466 134.766 38.2628 134.766C38.3791 134.766 38.5445 134.766 38.6854 134.766C38.8777 134.766 39.0699 134.766 39.26 134.766H39.5171C39.7093 134.766 39.9016 134.766 40.0917 134.748H40.1051C40.237 134.748 40.3711 134.748 40.5053 134.73C40.5425 134.733 40.5798 134.733 40.617 134.73C40.7288 134.73 40.8406 134.73 40.9479 134.715H41.0262L41.7752 134.657C42.0211 134.634 42.2692 134.605 42.5196 134.578L43.0294 134.518C45.1032 134.227 47.154 133.791 49.1664 133.212C53.6871 131.951 58.1093 130.187 62.6277 128.895C68.4697 127.23 74.9242 126.411 80.5694 128.448V107.495H32.0945ZM80.5582 41.1789V0.00365626C75.2523 -0.0538294 69.9607 0.566763 64.812 1.85036C52.5402 4.93342 41.5292 11.6205 32.0945 20.1609V41.1767H34.5269V42.1313H32.0945V74.6566H80.5582V42.1336H44.5139V41.1789H80.5582ZM142.807 27.2705C139.771 27.1632 136.753 26.2018 134.023 24.7173C128.803 21.8779 124.633 17.4937 119.974 13.7936C110.293 6.08705 98.2875 1.43675 85.9709 0.283121V41.1789H155.155L155.327 40.9978L142.807 27.2705ZM149.11 26.1526L155.792 33.4858V24.2299C153.554 24.5072 151.594 25.1667 149.119 26.1437L149.11 26.1526ZM155.792 140.651V107.495H141.553C141.515 107.354 141.477 107.211 141.432 107.068C141.475 107.211 141.511 107.354 141.551 107.495H85.9798V131.473C86.5075 131.864 87.0284 132.276 87.5448 132.694C88.1015 133.141 88.6515 133.613 89.2037 134.075L89.7604 134.536C90.0265 134.759 90.2948 134.983 90.5653 135.193C91.1019 135.628 91.6436 136.058 92.1907 136.481C92.4612 136.705 92.7384 136.906 93.0134 137.116C97.3791 140.454 101.984 143.466 106.792 146.128C107.87 146.724 108.957 147.306 110.054 147.874C110.785 148.248 111.521 148.619 112.258 148.979C113.367 149.52 114.485 150.041 115.612 150.544C126.001 155.207 136.986 158.407 148.254 160.052C150.756 160.422 153.268 160.712 155.79 160.924V140.648H156.014L155.792 140.651ZM85.9798 42.1336V74.6566H155.801V42.1336H85.9798ZM85.9798 75.6113V106.54H155.801V75.6113H85.9798ZM161.221 24.1897V34.5142L169.75 25.1555C166.924 24.6994 164.081 24.3738 161.221 24.1785V24.1897ZM161.221 75.6224V106.54H229.131V75.6113L161.221 75.6224ZM228.883 143.105L229.122 107.495H161.221V161.28C165.595 161.463 169.976 161.411 174.344 161.123V161.123H174.42C176.507 160.992 178.584 160.801 180.651 160.551H180.698C191.727 159.267 202.512 156.39 212.714 152.008L228.883 143.105ZM242.225 80.7042C241.971 80.1028 241.704 79.5059 241.434 78.9157C240.929 77.7978 240.394 76.7112 239.844 75.6247H234.546V106.54H247.942C247.935 97.7851 245.72 88.8423 242.232 80.693L242.225 80.7042ZM234.546 107.506V138.135C238.32 134.518 241.508 130.38 243.804 125.649C246.565 119.952 247.828 113.784 247.931 107.502L234.546 107.506ZM234.546 66.6102V74.6588H239.348C237.895 71.8882 236.294 69.1977 234.552 66.5991L234.546 66.6102ZM188.49 30.2574C188.137 30.1233 187.783 29.9869 187.428 29.855C183.679 28.4705 179.848 27.3191 175.956 26.4075L162.904 40.7318L162.654 40.9978L162.822 41.1812H209.275C202.806 36.7277 195.831 33.0571 188.497 30.2463L188.49 30.2574ZM210.637 42.1448H162.173L161.221 43.0167V74.6566H169.569H169.582H229.14V59.3307C223.752 52.8149 217.534 47.0333 210.644 42.1336L210.637 42.1448Z" fill="#DBD8E3"/>
<path opacity="0.1" d="M26.6771 58.5393V74.6566H4.05835C4.05835 74.5627 4.074 74.4666 4.08071 74.3727C4.10083 74.1156 4.12095 73.8585 4.14331 73.6036C4.1679 73.304 4.19473 73.0022 4.22379 72.7093C4.25286 72.4164 4.28416 72.0587 4.31769 71.7345C4.35123 71.4104 4.38253 71.0817 4.42054 70.7575C4.45854 70.4333 4.49208 70.1092 4.53232 69.7872C4.57257 69.4653 4.60834 69.1389 4.65082 68.8169C4.68435 68.5486 4.72012 68.2826 4.75589 68.0143C4.80731 67.6365 4.86097 67.2564 4.9191 66.8808C4.9191 66.8249 4.93475 66.7668 4.94369 66.7131C5.35176 63.9635 5.90777 61.238 6.60931 58.5483L26.6771 58.5393Z" fill="#DBD8E3"/>
<path opacity="0.1" d="M3.98676 75.6135H26.6771V106.54H5.6479C5.59201 106.858 5.53835 107.177 5.48022 107.497H26.6771V132.439C26.6391 132.428 26.6055 132.414 26.5698 132.401C25.9706 132.164 25.3759 131.913 24.7812 131.645L24.4011 131.473C23.8049 131.191 23.2087 130.893 22.6125 130.579C22.4046 130.469 22.1967 130.355 21.991 130.239C18.6812 128.385 15.6744 126.036 13.075 123.272C12.999 123.199 12.9274 123.12 12.8514 123.049C12.4892 122.655 12.1337 122.257 11.7894 121.85L11.4094 121.403C11.0025 120.905 10.609 120.393 10.2267 119.874C10.1708 119.798 10.1171 119.722 10.059 119.651C8.50414 117.495 7.21313 115.16 6.21354 112.697C6.18224 112.624 6.15541 112.543 6.12634 112.474C5.8193 111.684 5.54729 110.886 5.31031 110.082C5.20746 109.744 5.10909 109.411 5.02413 109.06C4.99283 108.957 4.966 108.856 4.94141 108.756C3.67152 103.799 3.52173 98.6504 3.52173 93.5373C3.52173 92.9404 3.52173 92.3412 3.52173 91.7487C3.52173 89.6807 3.54632 87.5992 3.58209 85.52C3.58209 84.9812 3.60445 84.4446 3.61563 83.9036C3.64693 82.5308 3.69164 81.1581 3.74977 79.7854C3.76319 79.4031 3.78107 79.023 3.80119 78.6429C3.80119 78.4238 3.81237 78.2047 3.83473 77.9856C3.88839 77.1897 3.9331 76.4005 3.98676 75.6135Z" fill="#DBD8E3"/>
<path opacity="0.1" d="M49.1553 46.7905V74.6565H32.0945V46.7905H34.5269V37.3557H44.5117V46.7905H49.1553Z" fill="#DBD8E3"/>
<path opacity="0.1" d="M49.1555 75.6111H32.0969V106.538H49.1555V75.6111Z" fill="#DBD8E3"/>
<path opacity="0.1" d="M32.0945 107.497H49.1553V133.208C47.1428 133.786 45.092 134.222 43.0182 134.511L42.5085 134.574C42.2581 134.603 42.0099 134.628 41.764 134.652C41.518 134.677 41.2632 134.695 41.015 134.71H40.9368C40.8294 134.71 40.7132 134.724 40.6081 134.726H40.4941C40.3599 134.726 40.2258 134.739 40.0917 134.744C39.9016 134.755 39.7116 134.757 39.5171 134.759C39.4344 134.759 39.3561 134.759 39.2734 134.759C39.0811 134.759 38.8911 134.759 38.6988 134.759H38.2762C38.1622 134.759 38.0527 134.759 37.9342 134.759L37.5027 134.744C37.2791 134.744 37.0377 134.719 36.8051 134.704L36.3759 134.672L35.8415 134.623C35.4659 134.59 35.0926 134.547 34.7237 134.496L34.2765 134.433L34.053 134.402C33.6796 134.344 33.3107 134.281 32.9351 134.209C32.6601 134.163 32.3874 134.104 32.1101 134.048L32.0945 107.497Z" fill="#DBD8E3"/>
<path opacity="0.1" d="M155.801 43.4995H141.734V74.6543H155.801V43.4995Z" fill="#DBD8E3"/>
<path opacity="0.1" d="M155.804 75.6111V106.54H85.98V93.1995H123.171V101.069H141.734V75.6111H155.804Z" fill="#DBD8E3"/>
<path opacity="0.1" d="M156.025 140.657H155.802V160.946C153.283 160.733 150.771 160.443 148.267 160.077C136.994 158.426 126.004 155.22 115.612 150.548C112.612 149.198 109.673 147.724 106.795 146.126C101.987 143.462 97.3809 140.45 93.0136 137.114C91.9166 136.273 90.8337 135.413 89.7651 134.534C89.025 133.923 88.2895 133.297 87.545 132.689C87.0285 132.271 86.5076 131.86 85.98 131.466V107.497H141.549C141.511 107.354 141.473 107.211 141.433 107.07C141.475 107.211 141.515 107.354 141.553 107.497H155.802V140.644C155.878 140.646 155.951 140.653 156.025 140.657Z" fill="#DBD8E3"/>
<path opacity="0.1" d="M192.49 41.1791H183.323V38.3308H187.432V29.8462C187.789 29.9759 188.143 30.1093 188.497 30.2464V38.3308H192.49V41.1791Z" fill="#DBD8E3"/>
<path opacity="0.1" d="M214.574 74.6568H169.573C169.573 74.6568 169.573 74.6568 169.589 74.668L169.569 74.6568H161.221V43.502H163.586V66.5299H174.396V52.892H183.325V42.136H192.492V52.901H201.421V66.5389H214.574V74.6568Z" fill="#DBD8E3"/>
<path opacity="0.1" d="M161.221 75.6111V106.54H214.574V75.6111H161.221ZM229.057 142.947L229.131 118.465H214.574V107.51H161.221V161.279C165.595 161.463 169.976 161.411 174.344 161.123V161.123H174.42C176.507 160.992 178.584 160.801 180.651 160.551H180.698C191.727 159.267 202.512 156.389 212.714 152.008" fill="#DBD8E3"/>
<path opacity="0.1" d="M235.494 107.497H247.94C247.83 113.777 246.569 119.946 243.811 125.642C241.514 130.375 238.324 134.514 234.555 138.129V118.454H235.494V107.497Z" fill="#DBD8E3"/>
<path opacity="0.1" d="M247.947 106.54H235.494V80.6931H242.232C245.72 88.8423 247.935 97.7852 247.947 106.54Z" fill="#DBD8E3"/>
<path opacity="0.1" d="M155.804 52.1609H148.267V61.9288H155.804V52.1609Z" fill="#DBD8E3"/>
<path opacity="0.1" d="M155.804 72.4072H148.267V74.6564H155.804V72.4072Z" fill="#DBD8E3"/>
<path opacity="0.1" d="M155.804 75.6111H148.267V82.1729H155.804V75.6111Z" fill="#DBD8E3"/>
<path opacity="0.1" d="M155.804 92.6543H148.267V102.422H155.804V92.6543Z" fill="#DBD8E3"/>
<path opacity="0.1" d="M155.804 112.901H148.267V122.668H155.804V112.901Z" fill="#DBD8E3"/>
<path opacity="0.1" d="M155.801 140.644C155.877 140.644 155.951 140.644 156.025 140.657H155.801V142.927H148.267V133.147H155.801V140.644Z" fill="#DBD8E3"/>
<path opacity="0.1" d="M155.801 153.39V160.935C153.283 160.722 150.771 160.432 148.267 160.066V153.39H155.801Z" fill="#DBD8E3"/>
<path opacity="0.1" d="M118.279 105.823H85.98V106.54H118.279V105.823Z" fill="#DBD8E3"/>
<path opacity="0.1" d="M118.279 107.495H85.98V110.245H118.279V107.495Z" fill="#DBD8E3"/>
<path opacity="0.1" d="M118.279 119.259H85.98V123.681H118.279V119.259Z" fill="#DBD8E3"/>
<path opacity="0.1" d="M118.277 132.696V137.118H93.0135C91.9165 136.281 90.833 135.421 89.7628 134.538C89.0228 133.928 88.2895 133.302 87.5427 132.696H118.277Z" fill="#DBD8E3"/>
<path opacity="0.1" d="M118.277 146.13V150.548H115.61C112.612 149.196 109.674 147.721 106.794 146.124L118.277 146.13Z" fill="#DBD8E3"/>
<path opacity="0.1" d="M180.705 78.6096H174.346V84.968H180.705V78.6096Z" fill="#DBD8E3"/>
<path opacity="0.1" d="M43.0339 48.9839H36.6755V55.3423H43.0339V48.9839Z" fill="#DBD8E3"/>
<path opacity="0.1" d="M43.0339 63.7529H36.6755V70.1113H43.0339V63.7529Z" fill="#DBD8E3"/>
<path opacity="0.1" d="M43.0339 78.5222H36.6755V84.8806H43.0339V78.5222Z" fill="#DBD8E3"/>
<path opacity="0.1" d="M43.0339 93.2891H36.6755V99.6475H43.0339V93.2891Z" fill="#DBD8E3"/>
<path opacity="0.1" d="M43.0339 108.058H36.6755V114.417H43.0339V108.058Z" fill="#DBD8E3"/>
<path opacity="0.1" d="M43.0339 122.828H36.6755V129.186H43.0339V122.828Z" fill="#DBD8E3"/>
<path opacity="0.1" d="M204.978 78.6096H198.62V84.968H204.978V78.6096Z" fill="#DBD8E3"/>
<path opacity="0.1" d="M180.705 94.2927H174.346V100.651H180.705V94.2927Z" fill="#DBD8E3"/>
<path opacity="0.1" d="M204.978 94.2927H198.62V100.651H204.978V94.2927Z" fill="#DBD8E3"/>
<path opacity="0.1" d="M180.705 109.974H174.346V116.333H180.705V109.974Z" fill="#DBD8E3"/>
<path opacity="0.1" d="M204.978 109.974H198.62V116.333H204.978V109.974Z" fill="#DBD8E3"/>
<path opacity="0.1" d="M180.705 125.658H174.346V132.016H180.705V125.658Z" fill="#DBD8E3"/>
<path opacity="0.1" d="M204.978 125.658H198.62V132.016H204.978V125.658Z" fill="#DBD8E3"/>
<path opacity="0.1" d="M180.705 141.341H174.346V147.7H180.705V141.341Z" fill="#DBD8E3"/>
<path opacity="0.1" d="M204.978 141.341H198.62V147.7H204.978V141.341Z" fill="#DBD8E3"/>
<path opacity="0.1" d="M174.346 161.123V157.023H180.703V160.54L174.346 161.123Z" fill="#DBD8E3"/>
<path opacity="0.1" d="M4.91699 66.7087V70.3463H26.6773V66.7087H4.91699ZM7.08564 70.1182H5.31048V66.9323H7.09906L7.08564 70.1182ZM9.25206 70.1182H7.46348V66.9323H9.25206V70.1182ZM11.414 70.1182H9.62542V66.9323H11.414V70.1182ZM13.5804 70.1182H11.7941V66.9323H13.5826L13.5804 70.1182ZM15.7446 70.1182H13.956V66.9323H15.7446V70.1182ZM17.911 70.1182H16.1224V66.9323H17.911V70.1182ZM20.0774 70.1182H18.2888V66.9323H20.0774V70.1182ZM22.2416 70.1182H20.453V66.9323H22.2416V70.1182ZM24.4058 70.1182H22.6172V66.9323H24.4058V70.1182ZM26.57 70.1182H24.7814V66.9323H26.57V70.1182Z" fill="#DBD8E3"/>
<path opacity="0.1" d="M4.91699 77.2927V80.9302H26.6773V77.2927H4.91699ZM7.08564 80.7H5.31048V77.523H7.09906L7.08564 80.7ZM9.25206 80.7H7.46348V77.523H9.25206V80.7ZM11.414 80.7H9.62542V77.523H11.414V80.7ZM13.5804 80.7H11.7941V77.523H13.5826L13.5804 80.7ZM15.7446 80.7H13.956V77.523H15.7446V80.7ZM17.911 80.7H16.1224V77.523H17.911V80.7ZM20.0774 80.7H18.2888V77.523H20.0774V80.7ZM22.2416 80.7H20.453V77.523H22.2416V80.7ZM24.4058 80.7H22.6172V77.523H24.4058V80.7ZM26.57 80.7H24.7814V77.523H26.57V80.7Z" fill="#DBD8E3"/>
<path opacity="0.1" d="M4.91699 87.8806V91.5248H26.6773V87.8806H4.91699ZM7.08564 91.2879H5.31048V88.1087H7.09906L7.08564 91.2879ZM9.25206 91.2879H7.46348V88.1087H9.25206V91.2879ZM11.414 91.2879H9.62542V88.1087H11.414V91.2879ZM13.5804 91.2879H11.7941V88.1087H13.5826L13.5804 91.2879ZM15.7446 91.2879H13.956V88.1087H15.7446V91.2879ZM17.911 91.2879H16.1224V88.1087H17.911V91.2879ZM20.0774 91.2879H18.2888V88.1087H20.0774V91.2879ZM22.2416 91.2879H20.453V88.1087H22.2416V91.2879ZM24.4058 91.2879H22.6172V88.1087H24.4058V91.2879ZM26.57 91.2879H24.7814V88.1087H26.57V91.2879Z" fill="#DBD8E3"/>
<path opacity="0.1" d="M4.91699 98.469V102.102H26.6773V98.469H4.91699ZM7.08564 101.876H5.31048V98.6948H7.09906L7.08564 101.876ZM9.25206 101.876H7.46348V98.6948H9.25206V101.876ZM11.414 101.876H9.62542V98.6948H11.414V101.876ZM13.5804 101.876H11.7941V98.6948H13.5826L13.5804 101.876ZM15.7446 101.876H13.956V98.6948H15.7446V101.876ZM17.911 101.876H16.1224V98.6948H17.911V101.876ZM20.0774 101.876H18.2888V98.6948H20.0774V101.876ZM22.2416 101.876H20.453V98.6948H22.2416V101.876ZM24.4058 101.876H22.6172V98.6948H24.4058V101.876ZM26.57 101.876H24.7814V98.6948H26.57V101.876Z" fill="#DBD8E3"/>
<path opacity="0.1" d="M5.01074 109.056C5.09794 109.398 5.19631 109.74 5.29915 110.077V109.284H7.08773V112.463H6.13084C6.1599 112.537 6.18897 112.617 6.21803 112.686H26.6771V109.056H5.01074ZM9.25861 112.463H7.47004V109.284H9.25861V112.463ZM11.4206 112.463H9.63198V109.284H11.4206V112.463ZM13.587 112.463H11.7939V109.284H13.5825L13.587 112.463ZM15.7511 112.463H13.9626V109.284H15.7511V112.463ZM17.9176 112.463H16.129V109.284H17.9176V112.463ZM20.084 112.463H18.2954V109.284H20.084V112.463ZM22.2481 112.463H20.4596V109.284H22.2481V112.463ZM24.4123 112.463H22.6238V109.284H24.4123V112.463ZM26.5765 112.463H24.7879V109.284H26.5765V112.463Z" fill="#DBD8E3"/>
<path opacity="0.1" d="M10.0635 119.644C10.1194 119.716 10.173 119.796 10.2312 119.868H11.4139V121.395C11.5413 121.547 11.6665 121.699 11.7962 121.842V119.859H13.5847V123.049H12.8604C12.9319 123.123 13.0012 123.201 13.0839 123.273H26.6838V119.644H10.0635ZM15.7444 123.049H13.9559V119.872H15.7444V123.049ZM17.9109 123.049H16.1223V119.872H17.9109V123.049ZM20.0773 123.049H18.2887V119.872H20.0773V123.049ZM22.2414 123.049H20.4529V119.872H22.2414V123.049ZM24.4056 123.049H22.617V119.872H24.4056V123.049ZM26.5698 123.049H24.7812V119.872H26.5698V123.049Z" fill="#DBD8E3"/>
<path opacity="0.1" d="M22.0002 130.23C22.2037 130.346 22.4116 130.453 22.6218 130.57V130.458H24.4104V131.464L24.7904 131.64V130.458H26.579V132.392C26.6133 132.409 26.6493 132.422 26.6863 132.432V130.23H22.0002Z" fill="#DBD8E3"/>
<path opacity="0.1" d="M169.573 74.6565H169.587H169.573ZM155.801 140.642H156.025H155.801ZM141.432 107.068C141.475 107.211 141.511 107.354 141.551 107.495C141.515 107.354 141.477 107.211 141.432 107.068ZM169.573 74.6498H169.587H169.573ZM34.5359 41.1721V42.1268H44.5229V41.1721H34.5359ZM155.801 140.642H156.025H155.801ZM141.432 107.068C141.475 107.211 141.511 107.354 141.551 107.495C141.515 107.354 141.477 107.211 141.432 107.068ZM169.573 74.6498H169.587H169.573ZM155.801 140.635H156.025H155.801ZM141.432 107.068C141.475 107.211 141.511 107.354 141.551 107.495C141.515 107.354 141.477 107.211 141.432 107.068Z" fill="#DBD8E3"/>
<path d="M104.094 84.8851C104.094 84.8851 103.213 84.7622 103.213 83.4789C103.213 82.1956 102.582 79.7989 102.582 79.7989C102.582 79.7877 102.037 75.6248 101.283 74.963C100.53 74.3012 99.5618 70.4155 99.5618 70.4155C99.5618 70.4155 99.3964 68.3073 99.0588 67.8534C98.7212 67.3996 98.2651 66.2884 97.5921 64.7033C96.9192 63.1182 94.1134 62.0204 94.1134 62.0204C94.1134 62.0204 89.0405 59.0782 87.6029 58.1191C87.4723 58.0403 87.3502 57.9481 87.2385 57.8441C86.9881 57.5154 85.8971 57.5087 85.8971 57.5087C85.7831 56.7888 85.6735 55.9616 85.6377 55.2126C85.6377 55.1322 85.6377 55.0517 85.6266 54.9712C87.2296 54.0236 88.437 52.5297 89.0271 50.7636C89.0539 50.6786 89.0763 50.5892 89.1009 50.5042C89.1969 50.4726 89.2853 50.4212 89.3604 50.3535C89.4355 50.2857 89.4956 50.203 89.5368 50.1107C89.6665 49.8223 89.6688 49.4847 89.8297 49.2164C90.0175 48.899 90.3752 48.7291 90.6569 48.4898C91.3679 47.8862 91.5512 46.8689 91.5177 45.9433C91.4953 45.1944 91.3746 44.4387 91.4216 43.6942L91.435 43.5064C91.4484 43.3946 91.464 43.2828 91.4842 43.1755C91.5937 42.6211 91.8329 42.0979 91.9671 41.5479C92.1012 40.9979 92.1146 40.3786 91.8016 39.9047C91.3433 39.2094 90.3887 39.0707 89.5503 38.9992C88.6001 38.9187 87.7505 39.0238 87.1424 38.2346C86.8578 37.8221 86.5376 37.4353 86.1855 37.0787C86.0603 36.9625 84.8441 36.2202 84.8441 36.171C83.657 35.6212 82.3115 35.518 81.0545 35.8804C80.424 36.0637 79.8293 36.3633 79.1899 36.5131C77.8105 36.8395 76.2231 36.4862 75.0516 37.2755C74.3988 37.7226 74.0075 38.4336 73.6409 39.1266C73.3428 39.6975 73.0402 40.2676 72.7332 40.837C72.2391 41.7737 71.736 42.7261 71.5281 43.7635C71.4844 43.9893 71.4575 44.2179 71.4476 44.4476V44.4588C71.4476 44.5416 71.4476 44.6243 71.4476 44.707V44.8121C71.4476 44.8903 71.4476 44.9663 71.461 45.0356C71.4745 45.1049 71.4722 45.1273 71.4789 45.1743C71.4856 45.2212 71.4968 45.3263 71.5102 45.3978C71.5236 45.4694 71.5505 45.5946 71.5773 45.6929C71.5885 45.7354 71.6041 45.7757 71.6175 45.8159C71.6399 45.8919 71.6667 45.9657 71.6958 46.0395C71.7114 46.0775 71.7271 46.1177 71.745 46.1557C71.7785 46.234 71.8188 46.31 71.859 46.3793C71.8769 46.4106 71.8903 46.4397 71.9082 46.4687C71.9706 46.5727 72.0393 46.6728 72.1139 46.7683C72.5923 47.3653 73.2966 47.7453 73.8175 48.3043C73.8175 48.3266 73.8175 48.349 73.8175 48.3691C73.8175 48.4317 73.8175 48.4921 73.8175 48.5547C73.8451 49.8012 74.1769 51.0221 74.784 52.1112C75.3911 53.2002 76.255 54.1245 77.3007 54.8035C77.3007 54.8885 77.3119 54.9757 77.3164 55.0606C77.36 55.7243 77.3518 56.3903 77.2918 57.0526C77.2008 56.9454 77.0868 56.86 76.9583 56.8027C76.8299 56.7455 76.6902 56.7178 76.5495 56.7218C76.4535 56.7171 76.3572 56.7253 76.2634 56.7464L76.2432 56.7307V56.7508C75.7514 56.8715 75.1455 57.3835 74.5665 58.839C74.5665 58.839 72.8047 60.8243 71.4633 60.7416C70.1218 60.6589 66.7258 62.8074 66.7258 62.8074C66.7258 62.8074 63.4125 64.9582 62.7015 67.1492C62.3041 68.3916 61.8277 69.6073 61.2751 70.7889L57.1793 79.2288L56.4236 85.9247C56.4236 85.9247 56.8417 88.9027 56.7589 89.3566C56.6762 89.8104 58.4782 93.904 58.4782 93.904C58.4782 93.904 64.4319 104.365 66.8644 104.902L67.0388 104.779C67.1429 104.833 67.2532 104.874 67.3674 104.902L67.8682 104.548C67.8983 104.942 67.8856 105.338 67.8302 105.729C67.4949 106.762 67.9554 113.502 68.5412 114.824C69.127 116.145 68.919 133.47 68.919 133.47L68.8363 134.999C68.8363 134.999 68.8363 135.048 68.8564 135.133L68.8363 135.495L68.8967 135.526C68.9594 136.012 68.9389 136.504 68.8363 136.982C68.6262 137.653 68.5412 139.549 68.5412 139.549C68.5412 139.549 66.8666 150.253 67.6603 152.404C68.454 154.555 69.1292 156.911 69.1292 156.911C69.1292 156.911 69.9676 159.594 69.1694 160.052C68.3713 160.511 66.102 161.28 66.5693 162.398C66.9941 163.43 68.606 166.198 68.8452 166.603L68.8251 166.815L68.4965 170.377C68.5497 170.847 68.6772 171.306 68.8743 171.736C69.2343 172.512 69.934 173.317 71.2643 173.23C71.4879 173.214 71.7472 173.187 71.9976 173.154C74.4323 172.827 77.4304 171.741 77.4304 171.741C77.2748 171.642 77.1321 171.524 77.0056 171.39V171.39C76.886 171.274 76.7911 171.135 76.7269 170.981C76.6628 170.827 76.6305 170.662 76.6323 170.495C76.668 169.847 75.454 166.757 75.1522 165.997C75.1053 165.888 75.0807 165.825 75.0807 165.825C75.0807 165.825 77.8485 162.932 77.3879 160.368C77.3879 160.368 74.325 158.579 75.3333 157.597C76.3416 156.616 78.1436 153.797 78.1436 153.797C78.1436 153.797 78.2263 143.255 78.1436 141.681C78.0573 140.589 78.1092 139.49 78.2979 138.411C78.3314 138.247 78.3717 138.089 78.4141 137.932C79.8086 138.14 81.2163 138.247 82.6262 138.252C83.1404 138.252 83.6636 138.252 84.1912 138.22C84.1912 138.37 84.1979 138.531 84.2114 138.703C84.3276 141.315 84.5445 145.893 84.7211 147.595C84.9715 150.034 86.3554 156.607 86.3554 156.607C86.3554 156.607 83.715 158.302 86.816 162.478C86.816 162.478 86.816 163.992 86.6103 164.211C86.3907 164.927 86.2138 165.656 86.0804 166.393C85.9507 167.18 85.8971 167.976 86.1073 168.389C86.6103 169.377 89.6285 169.297 89.6285 169.297L89.7023 169.284C90.2721 169.225 90.8479 169.28 91.3964 169.445C91.9448 169.61 92.4549 169.883 92.8971 170.247C94.0441 171.168 98.397 170.764 100.753 170.471C101.677 170.355 102.294 170.247 102.294 170.247C102.324 170.143 102.334 170.034 102.325 169.925C102.301 169.346 101.847 168.076 98.7704 166.943C98.7704 166.943 95.8773 164.998 95.9176 163.303H95.8572H95.5219C95.7656 163.29 95.9221 163.303 95.9221 163.303C95.9221 163.303 94.7886 159.167 95.2513 158.832C95.7141 158.496 94.328 153.913 94.328 153.913C94.328 153.913 93.5343 146.222 93.4918 145.683C93.4936 145.221 93.5637 144.761 93.6998 144.32L93.4918 140.103C93.4918 140.103 93.4516 138.701 93.4918 138.245C93.4851 137.849 93.4529 137.454 93.3957 137.062C93.3756 136.906 93.3555 136.743 93.3331 136.582C94.4174 136.307 95.1217 136.052 95.1217 136.052L94.9965 121.374C95.9176 119.586 96.0875 115.662 96.083 112.879C96.083 111.09 96.0025 109.766 96.0025 109.766L97.2613 107.712C97.2613 107.712 97.5519 105.253 97.0913 104.714C96.8879 104.47 96.9796 104.217 97.1472 104.009C97.2343 103.94 97.3262 103.878 97.4222 103.822C97.4222 103.822 97.4088 103.802 97.3932 103.773C97.4811 103.699 97.5745 103.633 97.6726 103.574C97.6726 103.574 97.2255 102.88 97.6257 102.588C98.0013 102.842 98.3366 103.035 98.5915 103.191C98.5736 103.354 98.5557 103.448 98.5557 103.448L98.6631 103.225C98.909 103.363 99.0588 103.448 99.0588 103.448C99.0588 103.448 101.031 99.5202 100.988 98.9411C100.946 98.3621 102.33 95.9229 102.33 95.9229C102.33 95.9229 102.497 94.6418 103.253 94.1052C104.009 93.5687 103.839 89.6808 103.839 89.6808C103.839 89.6808 104.049 87.6552 104.552 86.828C105.055 86.0008 104.094 84.8851 104.094 84.8851ZM66.3636 83.1614L66.4016 84.0982C66.178 83.7382 66.0171 83.4789 66.0171 83.4789L66.3636 83.1614Z" fill="url(#paint0_linear_484_614)"/>
<path d="M99.1659 101.751L98.683 103.808C98.683 103.808 94.8152 101.834 94.1176 99.3256C93.4201 96.8172 95.2847 95.8647 95.2847 95.8647L98.8887 97.3917L99.1659 101.751Z" fill="white"/>
<path opacity="0.1" d="M99.1659 101.751L98.683 103.808C98.683 103.808 94.8152 101.834 94.1176 99.3256C93.4201 96.8172 95.2847 95.8647 95.2847 95.8647L98.8887 97.3917L99.1659 101.751Z" fill="black"/>
<path d="M77.4596 171.754C77.4596 171.754 73.8824 173.068 71.4231 173.234C70.1175 173.321 69.4311 172.521 69.0779 171.749C68.8849 171.321 68.7604 170.864 68.709 170.397L69.0287 166.853L69.1986 164.966L74.4235 163.609L75.1635 165.872L75.2328 166.044C75.5302 166.8 76.7218 169.874 76.686 170.515C76.6846 170.68 76.7163 170.842 76.7793 170.994C76.8423 171.146 76.9353 171.283 77.0527 171.398C77.1727 171.534 77.3094 171.653 77.4596 171.754V171.754Z" fill="white"/>
<path d="M101.894 169.952C101.903 170.06 101.892 170.168 101.862 170.272C101.862 170.272 94.2118 171.549 92.6468 170.272C92.2055 169.899 91.6912 169.622 91.1368 169.46C90.5823 169.297 90.0001 169.253 89.4273 169.328C89.4273 169.328 86.4672 169.409 85.9731 168.434C85.7675 168.025 85.8211 167.231 85.9486 166.449C86.0786 165.716 86.2518 164.991 86.4672 164.278L86.5857 164.184L87.29 163.618L95.5353 163.375H95.5979C95.5577 165.06 98.397 166.994 98.397 166.994C101.413 168.112 101.858 169.375 101.894 169.952Z" fill="white"/>
<path opacity="0.1" d="M101.894 169.952C101.901 170.06 101.89 170.168 101.86 170.272C101.86 170.272 94.2116 171.548 92.6466 170.272C92.2056 169.899 91.6916 169.623 91.1376 169.46C90.5836 169.298 90.0018 169.253 89.4294 169.328C89.4294 169.328 86.467 169.409 85.9752 168.434C85.7695 168.023 85.8209 167.231 85.9483 166.449C87.0886 166.563 88.8883 166.847 89.5948 167.524C90.6635 168.555 92.4744 169.583 93.5856 169.664C94.4553 169.72 99.6578 169.885 101.894 169.952Z" fill="black"/>
<path opacity="0.1" d="M77.4593 171.754C77.4593 171.754 73.8822 173.069 71.4229 173.234C70.1172 173.321 69.4308 172.521 69.0798 171.748C69.9898 172.054 71.253 172.376 71.917 172.081C72.7039 171.732 75.4941 171.506 77.0591 171.41C77.1782 171.54 77.3126 171.656 77.4593 171.754V171.754Z" fill="black"/>
<path d="M82.767 65.8142C79.8158 64.6673 76.0196 60.8778 76.9675 59.1071C77.1781 58.6602 77.3032 58.178 77.3364 57.6851C77.3974 57.0161 77.4064 56.3434 77.3632 55.673C77.2968 54.575 77.1646 53.4821 76.9675 52.3999C76.9675 52.3999 86.1809 52.6078 85.6444 53.9649C85.4879 54.3629 85.4633 55.0537 85.5057 55.8273C85.5482 56.6008 85.66 57.475 85.7763 58.215C85.9372 59.23 86.0982 60.0036 86.0982 60.0036C86.0982 60.0036 85.5348 60.7928 85.2039 60.8353C84.873 60.8778 87.0014 67.4485 82.767 65.8142Z" fill="#CF6F80"/>
<path opacity="0.1" d="M75.2259 166.044L75.1565 166.12C72.4021 162.789 69.0709 166.94 69.0709 166.94L69.0217 166.853L69.1916 164.966L74.4165 163.609L75.1565 165.872L75.2259 166.044Z" fill="black"/>
<path opacity="0.1" d="M95.6 163.609C95.6 163.609 93.5878 163.567 92.5147 164.515C91.4415 165.463 86.2546 164.72 86.4782 164.515C86.5444 164.413 86.5844 164.296 86.5945 164.175L87.2987 163.609L95.5441 163.365C95.5754 163.515 95.6 163.609 95.6 163.609Z" fill="black"/>
<path d="M78.6532 137.449C78.5033 137.819 78.3895 138.203 78.3134 138.596C78.1269 139.67 78.0751 140.764 78.1591 141.851C78.2418 143.416 78.1591 153.904 78.1591 153.904C78.1591 153.904 76.3906 156.701 75.4047 157.687C74.4187 158.672 77.4168 160.443 77.4168 160.443C77.864 162.992 75.1543 165.871 75.1543 165.871C72.3999 162.54 69.0687 166.694 69.0687 166.694C69.0687 166.694 67.2577 163.564 66.8061 162.446C66.3545 161.328 68.5746 160.555 69.3548 160.101C70.1351 159.647 69.3168 156.971 69.3168 156.971C69.3168 156.971 68.6573 154.626 67.8748 152.486C67.0923 150.347 68.7378 139.696 68.7378 139.696C68.7378 139.696 68.8227 137.804 69.0262 137.145C69.1288 136.669 69.1493 136.179 69.0865 135.696C69.0731 135.533 69.0575 135.396 69.0463 135.305C69.0351 135.213 69.0262 135.171 69.0262 135.171L69.0575 135.117L70.1753 133.033C70.1753 133.033 79.1898 136.136 78.6532 137.449Z" fill="#DBD8E3"/>
<path d="M95.6002 163.363C95.6002 163.363 93.588 163.321 92.5149 164.258C91.4418 165.194 86.2549 164.463 86.4785 164.258C86.702 164.052 86.6841 162.529 86.6841 162.529C83.6413 158.375 86.237 156.69 86.237 156.69C86.237 156.69 84.8777 150.15 84.6318 147.724C84.4596 146.03 84.2472 141.476 84.1332 138.875C84.084 137.758 84.0549 136.988 84.0549 136.988L86.5411 136.488L86.8608 136.423L92.857 135.22C92.857 135.22 93.0224 136.338 93.1342 137.252C93.1899 137.643 93.2213 138.036 93.2281 138.43C93.1879 138.878 93.2281 140.277 93.2281 140.277L93.4315 144.474C93.2986 144.914 93.2301 145.371 93.2281 145.831C93.2683 146.365 94.0486 154.016 94.0486 154.016C94.0486 154.016 95.4057 158.581 94.9429 158.91C94.4801 159.238 95.6002 163.363 95.6002 163.363Z" fill="#DBD8E3"/>
<path opacity="0.1" d="M85.6444 53.9649C85.4879 54.3629 85.4633 55.0537 85.5057 55.8273C84.2716 56.5704 82.8529 56.9504 81.4126 56.9235C79.9723 56.8966 78.5687 56.4639 77.3632 55.6752C77.2969 54.5765 77.1647 53.4828 76.9675 52.3999C76.9675 52.3999 86.1809 52.6034 85.6444 53.9649Z" fill="black"/>
<path d="M89.2056 49.0238C89.2074 49.8295 89.0806 50.6303 88.83 51.3959C88.2699 53.1116 87.1213 54.5739 85.5873 55.5246C84.0532 56.4752 82.2325 56.853 80.4468 56.5911C78.6612 56.3291 77.0257 55.4444 75.8293 54.0932C74.6329 52.742 73.9526 51.0114 73.9088 49.2072C73.9088 49.1446 73.9088 49.0864 73.9088 49.0238C73.8915 48.0083 74.0765 46.9995 74.4531 46.0562C74.8298 45.1129 75.3905 44.254 76.1025 43.5297C76.8145 42.8054 77.6637 42.2301 78.6004 41.8374C79.5371 41.4447 80.5427 41.2424 81.5584 41.2424C82.5741 41.2424 83.5796 41.4447 84.5163 41.8374C85.453 42.2301 86.3022 42.8054 87.0142 43.5297C87.7263 44.254 88.2869 45.1129 88.6636 46.0562C89.0402 46.9995 89.2252 48.0083 89.2079 49.0238H89.2056Z" fill="#CF6F80"/>
<path opacity="0.1" d="M82.767 65.8144C79.8158 64.6675 76.0196 60.8779 76.9675 59.1072C77.1781 58.6604 77.3032 58.1781 77.3364 57.6853L81.3764 61.0053L83.8759 63.0555L85.7763 58.2174C85.9372 59.2324 86.0982 60.006 86.0982 60.006C86.0982 60.006 85.5348 60.7952 85.2039 60.8377C84.873 60.8801 87.0014 67.4487 82.767 65.8144Z" fill="black"/>
<path d="M93.2144 80.4874L89.8407 137.163L85.4408 137.451L74.0476 104.588L75.9167 65.5729L76.3102 57.3298L81.3763 61.4905L83.8781 63.5407L85.8343 58.5617L89.4719 61.732L93.2144 80.4874Z" fill="#DBD8E3"/>
<path opacity="0.1" d="M78.6536 137.449C78.5037 137.82 78.3899 138.204 78.3138 138.596C75.1122 138.102 72.0028 137.13 69.0892 135.714L69.0288 135.683L69.0489 135.323L69.0601 135.135L70.178 133.052C70.178 133.052 79.1902 136.137 78.6536 137.449Z" fill="black"/>
<path opacity="0.1" d="M86.5922 138.605C85.7738 138.744 84.9483 138.838 84.1195 138.887C84.0703 137.769 84.0413 137 84.0413 137L86.5274 136.499L86.5922 138.605Z" fill="black"/>
<path opacity="0.1" d="M93.1206 137.263C91.531 137.677 89.0762 138.142 86.8785 137.851L86.8472 136.434L92.8434 135.231C92.8434 135.231 93.0088 136.338 93.1206 137.263Z" fill="black"/>
<path opacity="0.1" d="M86.838 138.111C77.6715 139.676 69.2764 135.189 69.2764 135.189L69.3569 133.669C69.3569 133.669 69.5648 116.433 68.988 115.112C68.4112 113.791 67.9618 107.09 68.2882 106.062C68.6146 105.033 67.0965 89.6115 67.0965 89.6115L66.8506 83.3515L57.8496 79.705L61.8739 71.3166C62.4175 70.1405 62.8849 68.9307 63.2735 67.6947C63.9733 65.5171 67.2218 63.3775 67.2218 63.3775C67.2218 63.3775 70.553 61.2402 71.8698 61.3207C73.1867 61.4012 74.9126 59.4293 74.9126 59.4293C76.187 56.1808 77.3406 57.6519 77.3406 57.6519C77.3406 57.8061 77.3406 57.6519 77.278 58.1325C76.8309 61.6985 84.5083 72.9666 84.6179 73.1655L85.349 90.9753L86.089 113.514L86.838 138.111Z" fill="black"/>
<path d="M86.5922 138.111C77.4258 139.676 69.0284 135.189 69.0284 135.189L69.1111 133.669C69.1111 133.669 69.3191 116.434 68.74 115.112C68.1609 113.791 67.7138 107.091 68.0425 106.062C68.3711 105.034 66.8508 89.6117 66.8508 89.6117L66.6027 83.3517L57.5972 79.6918L61.6215 71.3034C62.1638 70.1268 62.6313 68.9171 63.021 67.6815C63.7186 65.5039 66.9693 63.3644 66.9693 63.3644C66.9693 63.3644 70.3005 61.227 71.6151 61.3075C72.9297 61.388 74.658 59.4161 74.658 59.4161C75.9345 56.1676 77.3408 57.6387 77.3408 57.6387C77.3408 57.7929 77.2067 57.8622 77.2782 58.1194C78.2619 61.578 84.2626 72.9534 84.3722 73.1523L85.1122 90.9621L85.8522 113.5L86.5922 138.111Z" fill="white"/>
<path opacity="0.1" d="M84.1218 73.6593C83.1359 73.248 77.9132 67.2853 77.9132 67.2853V65.9282C77.7232 65.4811 76.5941 65.7538 75.6775 66.0668L76.071 57.8237L76.5181 58.1949C77.4974 61.6513 84.0078 73.4604 84.1218 73.6593Z" fill="black"/>
<path d="M84.3699 73.1654C83.3817 72.7541 78.1591 66.7914 78.1591 66.7914V65.4343C77.969 64.9872 76.84 65.2599 75.9233 65.5729L76.3191 57.3298L76.7662 57.701C77.7477 61.1574 84.2603 72.9687 84.3699 73.1654Z" fill="white"/>
<path opacity="0.1" d="M69.2767 102.903C69.3997 102.903 75.6508 102.246 75.6508 102.246C75.6508 102.246 79.4358 109.688 79.1877 111.499C78.9395 113.31 78.4901 114.913 76.9676 114.629C75.4451 114.345 68.7737 114.853 68.7737 114.853L69.2767 102.903Z" fill="black"/>
<path d="M69.0287 102.409C69.1516 102.409 75.4027 101.751 75.4027 101.751C75.4027 101.751 79.1855 109.196 78.9396 111.005C78.6937 112.814 78.2398 114.419 76.7196 114.135C75.1993 113.851 68.5256 114.359 68.5256 114.359L69.0287 102.409Z" fill="white"/>
<path d="M73.739 98.9143C73.739 98.9143 79.4758 101.997 79.5988 102.939C79.7218 103.88 76.6789 102.527 76.0216 102.364C75.589 102.26 75.1486 102.191 74.7048 102.158L70.3206 102.277L73.739 98.9143Z" fill="#CF6F80"/>
<path opacity="0.1" d="M82.5209 74.0442C82.8543 74.0442 83.1245 73.7739 83.1245 73.4406C83.1245 73.1072 82.8543 72.8369 82.5209 72.8369C82.1875 72.8369 81.9172 73.1072 81.9172 73.4406C81.9172 73.7739 82.1875 74.0442 82.5209 74.0442Z" fill="black"/>
<path d="M82.5209 73.7984C82.8543 73.7984 83.1245 73.5281 83.1245 73.1947C83.1245 72.8613 82.8543 72.5911 82.5209 72.5911C82.1875 72.5911 81.9172 72.8613 81.9172 73.1947C81.9172 73.5281 82.1875 73.7984 82.5209 73.7984Z" fill="#3F3D56"/>
<path opacity="0.1" d="M83.6322 100.175C83.9656 100.175 84.2359 99.905 84.2359 99.5717C84.2359 99.2383 83.9656 98.968 83.6322 98.968C83.2988 98.968 83.0286 99.2383 83.0286 99.5717C83.0286 99.905 83.2988 100.175 83.6322 100.175Z" fill="black"/>
<path d="M83.6322 99.927C83.9656 99.927 84.2359 99.6568 84.2359 99.3234C84.2359 98.99 83.9656 98.7197 83.6322 98.7197C83.2988 98.7197 83.0286 98.99 83.0286 99.3234C83.0286 99.6568 83.2988 99.927 83.6322 99.927Z" fill="#3F3D56"/>
<path opacity="0.1" d="M83.1224 87.1096C83.4558 87.1096 83.7261 86.8394 83.7261 86.506C83.7261 86.1726 83.4558 85.9023 83.1224 85.9023C82.7891 85.9023 82.5188 86.1726 82.5188 86.506C82.5188 86.8394 82.7891 87.1096 83.1224 87.1096Z" fill="black"/>
<path d="M83.1224 86.8638C83.4558 86.8638 83.7261 86.5935 83.7261 86.2601C83.7261 85.9268 83.4558 85.6565 83.1224 85.6565C82.7891 85.6565 82.5188 85.9268 82.5188 86.2601C82.5188 86.5935 82.7891 86.8638 83.1224 86.8638Z" fill="#3F3D56"/>
<path d="M97.0377 102.033C97.0377 102.033 97.4491 102.65 97.0377 102.938C96.6264 103.227 97.078 103.924 97.078 103.924C97.078 103.924 96.0518 104.526 96.5034 105.067C96.955 105.608 96.6688 108.051 96.6688 108.051L95.4347 110.095C95.4347 110.095 95.5085 111.412 95.513 113.191C95.513 115.968 95.3498 119.872 94.4465 121.651L94.5717 136.253C94.5717 136.253 90.2501 137.831 86.6327 137.351L86.0961 113.92C86.0961 113.92 86.8786 100.633 87.167 98.0846C87.3358 96.7614 87.4046 95.4274 87.3727 94.0939C87.3727 94.0939 87.2497 90.1053 86.8361 88.2542C86.8361 88.2542 86.389 80.2346 86.3443 78.0146C86.3242 76.9526 86.3801 73.8539 86.4427 70.9072C86.512 67.6855 86.5902 64.6472 86.5902 64.6472L85.7742 58.1904C85.7742 58.1904 86.5902 58.1077 86.8361 58.4364C86.9463 58.5393 87.0661 58.6314 87.1939 58.7114V58.7114C88.6024 59.6638 93.5791 62.5926 93.5791 62.5926C93.5791 62.5926 96.3335 63.6881 96.993 65.2575C97.6526 66.827 98.1109 67.9404 98.4306 68.3876C98.7503 68.8347 98.9247 70.9363 98.9247 70.9363C98.9247 70.9363 99.8726 74.8041 100.613 75.4591C101.353 76.1142 101.894 80.2816 101.894 80.2816L95.3542 85.4237C95.3542 85.4237 94.7797 93.9776 94.6567 94.3085C94.5337 94.6394 97.0377 102.033 97.0377 102.033Z" fill="white"/>
<path d="M97.2859 102.033C97.2859 102.033 97.6951 102.65 97.2859 102.938C96.8768 103.227 97.3239 103.924 97.3239 103.924C97.3239 103.924 96.3044 104.532 96.7516 105.073C97.1987 105.614 96.917 108.058 96.917 108.058L95.6829 110.102C95.6829 110.102 95.7567 111.418 95.7634 113.198C95.7634 115.975 95.6002 119.878 94.697 121.658L94.8199 136.259C94.8199 136.259 90.4916 137.838 86.8786 137.357L86.3443 113.927C86.3443 113.927 87.1268 100.64 87.4152 98.0913C87.5842 96.7681 87.6522 95.434 87.6187 94.1005C87.6187 94.1005 87.4957 90.112 87.0843 88.2608C87.0843 88.2608 86.6372 80.2413 86.5902 78.0212C86.5701 76.9592 86.6282 73.8605 86.6886 70.9138C86.7579 67.6922 86.8362 64.6538 86.8362 64.6538L85.7585 58.1099C85.7585 58.1099 86.8362 58.1099 87.0843 58.443C87.1935 58.5471 87.3134 58.6393 87.442 58.718C88.8505 59.6704 93.8295 62.5992 93.8295 62.5992C93.8295 62.5992 96.5817 63.6947 97.2412 65.2642C97.9007 66.8336 98.3591 67.947 98.681 68.3942C99.003 68.8413 99.1729 70.9429 99.1729 70.9429C99.1729 70.9429 100.121 74.8107 100.861 75.4658C101.601 76.1208 102.135 80.2793 102.135 80.2793L95.5957 85.4214C95.5957 85.4214 95.0211 93.9753 94.8959 94.3062C94.7707 94.6371 97.2859 102.033 97.2859 102.033Z" fill="white"/>
<path opacity="0.1" d="M89.4541 66.5521L90.0443 68.2736L86.9367 71.4036C87.006 68.1841 87.0842 65.1436 87.0842 65.1436L86.0066 58.5996C86.0066 58.5996 87.0842 58.5996 87.3324 58.9327C87.4412 59.0366 87.5612 59.128 87.6901 59.2055L90.3327 66.8293L89.4541 66.5521Z" fill="black"/>
<path d="M89.206 66.0582L89.7985 67.7797L86.6908 70.9097C86.7602 67.688 86.8384 64.6497 86.8384 64.6497L85.7585 58.1057C85.7585 58.1057 86.8384 58.1057 87.0843 58.4388C87.194 58.5423 87.3138 58.6345 87.442 58.7138L90.0869 66.3354L89.206 66.0582Z" fill="white"/>
<path opacity="0.1" d="M89.2056 49.0238C89.2074 49.8295 89.0806 50.6303 88.83 51.3959C88.7878 51.4025 88.7447 51.4006 88.7032 51.3902C88.6617 51.3799 88.6227 51.3613 88.5886 51.3356C88.5304 49.3234 87.54 47.4343 86.3216 45.8268C85.9795 45.3414 85.5647 44.9116 85.0919 44.5524C84.6139 44.1934 84.0193 44.0252 83.4241 44.0807C82.7534 44.1723 82.1609 44.6284 81.4835 44.6865C80.5892 44.7603 79.7888 44.141 78.9012 44.1097C78.5404 44.1132 78.1844 44.1935 77.8571 44.3454C77.5298 44.4973 77.2386 44.7173 77.0031 44.9906C76.5368 45.5422 76.1904 46.1848 75.9858 46.8776C75.6343 47.928 75.4429 49.0253 75.4179 50.1328C75.4068 50.7588 75.3464 51.5435 74.7651 51.7715C74.8089 51.3112 74.7566 50.8467 74.6115 50.4076C74.4664 49.9685 74.2317 49.5643 73.9223 49.2206L73.9088 49.2072C73.9088 49.1446 73.9088 49.0864 73.9088 49.0238C73.8915 48.0083 74.0765 46.9995 74.4531 46.0562C74.8298 45.1129 75.3905 44.254 76.1025 43.5297C76.8145 42.8054 77.6637 42.2301 78.6004 41.8374C79.5371 41.4447 80.5427 41.2424 81.5584 41.2424C82.5741 41.2424 83.5796 41.4447 84.5163 41.8374C85.453 42.2301 86.3022 42.8054 87.0142 43.5297C87.7263 44.254 88.2869 45.1129 88.6636 46.0562C89.0402 46.9995 89.2252 48.0083 89.2079 49.0238H89.2056Z" fill="black"/>
<path d="M84.7256 36.8777C83.5638 36.3312 82.2424 36.2279 81.0098 36.5871C80.3905 36.7704 79.807 37.0677 79.1788 37.2175C77.8373 37.5417 76.2723 37.1907 75.1209 37.9754C74.4815 38.4226 74.097 39.1291 73.7393 39.8154L72.845 41.5191C72.3576 42.4514 71.8657 43.3993 71.6623 44.4255C71.4588 45.4517 71.5818 46.6009 72.2324 47.4258C72.7063 48.0272 73.4061 48.4051 73.9203 48.9707C74.2284 49.3148 74.4621 49.7187 74.6067 50.1573C74.7514 50.5959 74.8039 51.0596 74.761 51.5194C75.3445 51.2959 75.4004 50.5089 75.4138 49.8829C75.4387 48.7755 75.6302 47.6781 75.9817 46.6277C76.1857 45.9348 76.5322 45.2921 76.9989 44.7407C77.2347 44.4676 77.5259 44.2478 77.8531 44.0959C78.1804 43.9441 78.5363 43.8636 78.8971 43.8599C79.7913 43.8912 80.594 44.5082 81.4793 44.4344C82.15 44.3786 82.7447 43.9202 83.4199 43.8308C84.0153 43.7745 84.6101 43.9427 85.0878 44.3025C85.5604 44.6612 85.9745 45.0911 86.3152 45.5769C87.5359 47.1844 88.5263 49.0691 88.5844 51.0857C88.8371 51.2713 89.2015 51.0298 89.3267 50.7437C89.4519 50.4575 89.4564 50.1221 89.6151 49.8494C89.7984 49.5341 90.1494 49.3664 90.4244 49.1295C91.122 48.5281 91.2964 47.5153 91.2695 46.5964C91.2427 45.6775 91.0638 44.7452 91.2382 43.842C91.3433 43.2875 91.5803 42.7688 91.71 42.2211C91.8396 41.6733 91.8553 41.0585 91.549 40.5868C91.1019 39.8937 90.1606 39.7573 89.3401 39.6925C88.4078 39.612 87.5739 39.7148 86.9792 38.9301C86.7 38.5206 86.3859 38.1361 86.0402 37.7809C85.9217 37.6647 84.7256 36.9269 84.7256 36.8777Z" fill="#512E4E"/>
<path opacity="0.1" d="M60.4252 84.0242L58.0889 79.7048L57.3489 86.3695C57.3489 86.3695 57.7602 89.3296 57.6775 89.7835C57.5948 90.2373 59.3633 94.3063 59.3633 94.3063C59.3633 94.3063 65.2052 104.711 67.5907 105.248L75.6505 99.4887L73.5131 96.7746C73.5131 96.7746 72.7731 96.4862 72.5876 96.7746C72.5876 96.7746 68.6191 89.9467 68.2078 89.4526C67.7964 88.9585 67.8769 87.9725 67.8769 87.9725C67.8769 87.9725 67.2598 87.3152 67.4655 86.6982C67.6712 86.0811 66.2739 83.9415 66.2739 83.9415L67.5482 82.7499L60.4252 84.0242Z" fill="black"/>
<path d="M58.2121 79.2129L57.595 79.7048L56.855 86.3694C56.855 86.3694 57.2664 89.3295 57.1836 89.7834C57.1009 90.2372 58.8716 94.3062 58.8716 94.3062C58.8716 94.3062 64.7113 104.711 67.0968 105.248L75.1588 99.4886L73.0192 96.7745C73.0192 96.7745 72.2792 96.4861 72.0937 96.7745C72.0937 96.7745 68.1253 89.9466 67.7139 89.4525C67.3025 88.9584 67.3852 87.9724 67.3852 87.9724C67.3852 87.9724 66.7682 87.3151 66.9739 86.6981C67.1795 86.081 65.78 83.9414 65.78 83.9414L67.0543 82.7498L58.2121 79.2129Z" fill="white"/>
<path opacity="0.1" d="M96.5032 105.322C96.9503 105.865 96.6686 108.304 96.6686 108.304L95.4345 110.348C95.4345 110.348 95.5083 111.667 95.5127 113.444L93.438 114.093C93.2505 114.151 93.0517 114.164 92.8582 114.13C92.6647 114.096 92.4821 114.017 92.3257 113.898C92.1693 113.779 92.0435 113.625 91.9589 113.447C91.8743 113.27 91.8334 113.075 91.8395 112.879L92.1972 101.34L97.0375 103.191C96.6261 103.477 97.0777 104.179 97.0777 104.179C97.0777 104.179 96.0516 104.779 96.5032 105.322Z" fill="black"/>
<path d="M96.7517 105.073C97.1988 105.617 96.9171 108.058 96.9171 108.058L95.683 110.101C95.683 110.101 95.7568 111.418 95.7635 113.198L93.6508 113.857C93.4671 113.915 93.2725 113.927 93.0831 113.894C92.8938 113.86 92.7151 113.782 92.562 113.666C92.4089 113.549 92.2858 113.398 92.203 113.225C92.1201 113.051 92.0799 112.86 92.0858 112.668L92.4457 101.094L97.2883 102.945C96.8747 103.231 97.3263 103.931 97.3263 103.931C97.3263 103.931 96.3046 104.532 96.7517 105.073Z" fill="white"/>
<path d="M98.3544 99.5737C98.3544 99.5737 98.0258 101.673 97.203 101.796C96.3803 101.919 96.0114 105.192 95.1909 105.076C94.3704 104.96 94.9137 102.033 94.9427 101.465C94.9718 100.897 94.0484 98.5453 94.7393 98.0109C95.4301 97.4766 97.6167 98.0109 97.6167 98.0109L98.3544 99.5737Z" fill="#CF6F80"/>
<path opacity="0.1" d="M100.105 83.4074L101.657 80.2773C101.657 80.2773 102.274 82.6629 102.274 83.9372C102.274 85.2116 103.137 85.3368 103.137 85.3368C103.137 85.3368 104.082 86.4546 103.584 87.2684C103.085 88.0822 102.884 90.1078 102.884 90.1078C102.884 90.1078 103.047 93.9734 102.307 94.5077C101.567 95.042 101.413 96.3186 101.413 96.3186C101.413 96.3186 100.054 98.7444 100.096 99.3212C100.139 99.898 98.2048 103.804 98.2048 103.804C98.2048 103.804 99.1505 98.9501 93.6394 96.853C93.6394 96.853 93.597 95.2053 94.0083 94.7536C94.4197 94.302 95.0614 94.0963 94.6589 91.8137C94.2565 89.531 94.5427 86.8034 94.5427 86.2557C94.5427 85.7079 95.7768 82.2917 95.7768 82.2917L100.105 83.4074Z" fill="black"/>
<path d="M100.776 79.8301L102.131 80.2772C102.131 80.2772 102.75 82.6627 102.75 83.9371C102.75 85.2115 103.613 85.3367 103.613 85.3367C103.613 85.3367 104.559 86.4545 104.06 87.2683C103.561 88.0821 103.362 90.1077 103.362 90.1077C103.362 90.1077 103.526 93.9732 102.786 94.5076C102.046 95.0419 101.88 96.3185 101.88 96.3185C101.88 96.3185 100.523 98.7443 100.566 99.3211C100.608 99.8979 98.6719 103.804 98.6719 103.804C98.6719 103.804 99.6198 98.95 94.1065 96.8529C94.1065 96.8529 94.0663 95.2051 94.4777 94.7535C94.889 94.3019 95.5307 94.0962 95.1283 91.8135C94.7258 89.5309 95.012 86.8033 95.012 86.2555C95.012 85.7078 96.2461 82.2916 96.2461 82.2916L100.776 79.8301Z" fill="white"/>
<path opacity="0.1" d="M70.8506 160.957C70.8506 160.957 73.0103 159.6 74.4277 160.586C75.8452 161.572 70.8506 160.957 70.8506 160.957Z" fill="black"/>
<path opacity="0.1" d="M87.6318 156.761C87.6318 156.761 89.5434 156.515 91.1486 158.243C92.7539 159.972 87.6318 156.761 87.6318 156.761Z" fill="black"/>
<g opacity="0.1">
<path opacity="0.1" d="M90.429 48.6393C90.154 48.8763 89.8008 49.0462 89.6174 49.3615C89.4609 49.632 89.4565 49.9651 89.3313 50.2558C89.2061 50.5464 88.8416 50.7834 88.589 50.6001C88.5309 48.5879 87.5382 46.6987 86.3198 45.089C85.9791 44.6032 85.565 44.1733 85.0923 43.8146C84.6138 43.4549 84.0183 43.2867 83.4223 43.3429C82.7515 43.4346 82.1613 43.8907 81.4839 43.9466C80.5896 44.0226 79.787 43.4033 78.8994 43.372C78.5387 43.3756 78.1829 43.4562 77.856 43.6085C77.529 43.7608 77.2383 43.9813 77.0035 44.2551C76.5368 44.8056 76.1903 45.4475 75.9863 46.1398C75.6349 47.1903 75.4435 48.2876 75.4184 49.395C75.405 50.0188 75.3468 50.7968 74.77 51.0293C74.7834 51.1945 74.7834 51.3605 74.77 51.5256C75.3513 51.3021 75.4094 50.5151 75.4229 49.8891C75.4478 48.7817 75.6392 47.6843 75.9907 46.6339C76.1948 45.941 76.5413 45.2983 77.008 44.7469C77.2433 44.4739 77.5341 44.2541 77.861 44.1022C78.1879 43.9503 78.5434 43.8698 78.9039 43.8661C79.7982 43.8974 80.603 44.5144 81.4884 44.4406C82.1591 44.3848 82.7538 43.9264 83.4267 43.837C84.0227 43.7808 84.6183 43.949 85.0968 44.3087C85.5695 44.6674 85.9836 45.0973 86.3242 45.5831C87.5427 47.1906 88.5354 49.0753 88.5935 51.0919C88.8461 51.2775 89.2105 51.036 89.3357 50.7499C89.4609 50.4637 89.4654 50.1283 89.6219 49.8556C89.8052 49.5403 90.1585 49.3726 90.4335 49.1357C91.131 48.5343 91.3054 47.5215 91.2786 46.6026C91.2786 46.5735 91.2786 46.5445 91.2786 46.5176C91.2361 47.3136 91.0237 48.1251 90.429 48.6393Z" fill="black"/>
<path opacity="0.1" d="M73.9247 48.4806C73.4105 47.915 72.7085 47.5372 72.2367 46.938C71.8395 46.4076 71.6126 45.7691 71.5861 45.1069C71.5158 45.9344 71.7468 46.7593 72.2367 47.4298C72.7085 48.0313 73.4105 48.4091 73.9247 48.9747C74.4184 49.528 74.7148 50.2293 74.7676 50.969C74.8018 50.5188 74.7448 50.0664 74.5999 49.6388C74.4551 49.2113 74.2254 48.8173 73.9247 48.4806V48.4806Z" fill="black"/>
<path opacity="0.1" d="M91.7144 41.731C91.5825 42.2788 91.3478 42.7997 91.2405 43.3519C91.1769 43.7209 91.1537 44.0957 91.1712 44.4698C91.1786 44.2567 91.2018 44.0445 91.2405 43.8348C91.3478 43.2804 91.5825 42.7617 91.7144 42.2139C91.7913 41.9118 91.8163 41.5988 91.7882 41.2883C91.7743 41.4375 91.7497 41.5854 91.7144 41.731V41.731Z" fill="black"/>
</g>
<path opacity="0.1" d="M30.5676 170.048C42.599 170.048 52.3524 168.482 52.3524 166.549C52.3524 164.617 42.599 163.05 30.5676 163.05C18.5361 163.05 8.78271 164.617 8.78271 166.549C8.78271 168.482 18.5361 170.048 30.5676 170.048Z" fill="#DBD8E3"/>
<path d="M31.2695 99.5222H29.8677V131.084H31.2695V99.5222Z" fill="#535461"/>
<path d="M40.0781 130.988L39.9909 132.41L39.8657 134.422L39.8143 135.258L39.6913 137.27L39.6377 138.106L39.5125 140.118L38.0995 162.938C38.0381 163.92 37.6048 164.842 36.8879 165.516C36.1711 166.189 35.2244 166.564 34.2406 166.565H26.894C25.9105 166.564 24.9641 166.189 24.2476 165.515C23.5311 164.842 23.0983 163.92 23.0374 162.938L21.6312 140.103L21.506 138.091L21.4545 137.254L21.3293 135.242L21.2779 134.406L21.1527 132.394L21.0633 130.972C21.0478 130.698 21.0883 130.424 21.1824 130.167C21.2766 129.91 21.4223 129.674 21.6108 129.475C21.7992 129.276 22.0263 129.117 22.2781 129.009C22.53 128.901 22.8013 128.846 23.0754 128.846H38.1017C38.3748 128.848 38.6445 128.907 38.8942 129.017C39.1439 129.128 39.3682 129.288 39.5534 129.489C39.7386 129.69 39.8807 129.926 39.9709 130.184C40.0612 130.442 40.0977 130.715 40.0781 130.988V130.988Z" fill="#3F3D56"/>
<path d="M39.9907 132.41L39.8655 134.415H21.2688L21.1436 132.41H39.9907Z" fill="#9D9CB5"/>
<path d="M39.8144 135.251L39.6915 137.259H21.4458L21.3206 135.251H39.8144Z" fill="#9D9CB5"/>
<path d="M39.638 138.097L39.515 140.103H21.6225L21.4973 138.097H39.638Z" fill="#9D9CB5"/>
<path d="M19.0041 111.352C27.1668 117.258 30.574 126.496 30.574 126.496C30.574 126.496 20.7368 126.159 12.572 120.252C4.40712 114.345 1.00659 105.109 1.00659 105.109C1.00659 105.109 10.8393 105.445 19.0041 111.352Z" fill="#DBD8E3"/>
<path d="M1 105.109C1 105.109 11.2128 110.777 14.4881 115.47C17.7634 120.162 30.5741 126.496 30.5741 126.496" stroke="#535461" stroke-width="2" stroke-miterlimit="10"/>
<path d="M24.274 99.453C28.7164 102.666 30.5742 107.694 30.5742 107.694C30.5742 107.694 25.2197 107.511 20.7751 104.298C16.3305 101.085 14.4771 96.0547 14.4771 96.0547C14.4771 96.0547 19.8294 96.238 24.274 99.453Z" fill="#DBD8E3"/>
<path d="M14.4771 96.0547C14.4771 96.0547 20.0351 99.14 21.8169 101.693C23.5988 104.246 30.5742 107.694 30.5742 107.694" stroke="#535461" stroke-width="2" stroke-miterlimit="10"/>
<path d="M37.0238 107.439C31.9197 113.049 30.8398 120.38 30.8398 120.38C30.8398 120.38 38.0366 118.614 43.1363 113.002C48.236 107.39 49.3203 100.062 49.3203 100.062C49.3203 100.062 42.128 101.83 37.0238 107.439Z" fill="#DBD8E3"/>
<path d="M49.3248 100.063C49.3248 100.063 42.6758 105.814 40.9855 109.775C39.2953 113.737 30.8398 120.379 30.8398 120.379" stroke="#535461" stroke-width="2" stroke-miterlimit="10"/>
<path d="M224.391 105.465C224.391 105.465 220.7 87.1005 222.113 84.8156C222.113 84.8156 222.164 82.6917 222.079 79.9842C222.079 79.8814 222.079 79.7785 222.079 79.6735C222.328 79.8392 222.587 79.9886 222.855 80.1206C224.157 80.7894 225.652 80.9824 227.081 80.6661L225.963 79.4208C225.695 79.1235 225.415 78.8015 225.357 78.408C225.299 78.0146 225.46 77.6635 225.598 77.3125C226.66 74.6297 226.716 71.256 224.671 69.208C222.942 67.4865 222.522 65.2642 220.646 63.6925C219.276 62.5411 218.522 60.8532 217.811 59.2211C217.21 57.8416 216.604 56.451 216.26 54.9889C215.992 53.8464 215.884 52.6637 215.515 51.5481C215.146 50.4325 214.456 49.3481 213.376 48.8496C212.991 48.673 212.564 48.5723 212.213 48.3376C211.753 48.0268 211.475 47.5216 211.142 47.0789C209.45 44.8432 203.782 46.16 201.099 47.0677C200.37 47.2963 199.695 47.6705 199.114 48.1677L199.139 48.1274C199.159 48.0939 199.183 48.0604 199.206 48.0268C198.912 48.2643 198.658 48.5474 198.455 48.8652C198.063 49.4845 197.9 50.2067 197.574 50.8774C197.18 51.6711 194.991 53.8867 195.933 54.7787C195.999 54.8386 196.074 54.887 196.156 54.9218C196.51 55.0689 196.899 55.1078 197.274 55.0336L197.234 55.1297C196.912 55.9168 196.748 56.759 196.749 57.6091C196.749 61.2824 199.778 64.2604 203.518 64.2604C204.222 64.2611 204.921 64.1532 205.591 63.9407C205.607 64.0256 205.62 64.1106 205.636 64.1956C205.636 64.2291 205.647 64.2626 205.651 64.2962L205.533 64.4616C205.527 64.4514 205.52 64.4417 205.513 64.4326L202.003 69.3377C201.466 69.7156 198.376 71.9513 198.202 73.6281C198.019 75.4636 197.835 77.6121 197.835 77.6121L197.811 78.0727C197.657 78.2009 197.478 78.2942 197.285 78.3463C197.092 78.3985 196.89 78.4081 196.693 78.3745C195.597 78.1956 195.597 82.3988 195.597 82.3988C195.597 82.3988 194.868 83.0695 194.368 82.4882C193.867 81.9069 192.543 83.8766 192.543 83.8766L184.249 84.2343L184.059 84.2455L183.612 82.8616C183.564 82.7156 183.46 82.5945 183.323 82.5246C183.186 82.4547 183.027 82.4416 182.881 82.4882C182.846 82.4996 182.812 82.5138 182.78 82.5307L182.749 82.5486L182.691 82.5888L182.661 82.6157C182.645 82.6302 182.63 82.6459 182.617 82.6626L182.59 82.6939L182.576 82.7073C182.525 82.7787 182.491 82.8612 182.477 82.9482C182.463 83.0351 182.469 83.1242 182.496 83.2081L182.881 84.3953C181.28 84.7172 179.643 85.625 180.978 88.1245L174.213 86.8747L176.401 88.7125L187.701 91.0443C187.551 91.3126 187.649 91.7016 188.117 92.2494C190.129 94.6125 193.795 95.2542 195.271 95.4196C195.661 96.2913 196.147 97.1163 196.722 97.8789L196.594 100.233C196.594 100.233 192.859 118.177 192.174 119.087C192.52 118.696 192.836 118.279 193.12 117.842C192.036 121.528 190.52 126.574 190.122 127.33C189.483 128.537 188.89 133.422 189.619 133.735C189.843 133.832 190.482 133.785 191.394 133.715V134.12L191.354 149.455C191.354 149.455 191.537 158.86 191.034 159.757C190.531 160.654 190.397 162.534 190.397 162.534C190.397 162.534 188.385 166.243 186.791 167.734C186.78 167.746 186.768 167.756 186.755 167.765L186.706 167.417C186.706 167.417 184.79 169.836 180.551 169.699C180.551 169.699 178 171.358 181.783 171.448C185.566 171.537 190.397 171.313 190.397 171.313C190.397 171.313 193.771 166.171 196.597 166.842V170.739H197.462V166.779C197.863 166.515 198.207 166.172 198.471 165.772C198.736 165.371 198.917 164.92 199.002 164.448C199.076 163.96 199.022 163.462 198.845 163.002C198.668 162.542 198.374 162.137 197.992 161.825C197.82 161.67 197.683 161.481 197.588 161.27C197.493 161.059 197.442 160.831 197.44 160.6L197.408 160.627C197.408 160.548 197.388 160.468 197.379 160.385C197.131 158.373 196.82 154.221 197.918 151.149C199.423 146.937 199.879 141.071 198.783 137.579C198.43 136.462 198.139 135.327 197.914 134.178C197.887 134.033 197.862 133.894 197.84 133.764C198.589 133.866 199.33 134.015 200.06 134.212C202.597 134.911 208.149 135.041 212.888 135.003C212.9 135.133 212.913 135.269 212.929 135.406C213.013 136.353 213.19 137.291 213.456 138.205C214.051 139.993 214.324 147.879 214.324 147.879C214.324 147.879 215.091 154.362 214.672 157C214.449 158.467 214.225 159.94 214.098 161.42V161.449C214.098 161.449 212.841 165.027 211.923 166.969C211.9 167.019 211.876 167.068 211.853 167.115C211.608 167.137 211.367 167.19 211.136 167.273C211.136 167.273 209.904 169.733 208.676 170.14C207.449 170.547 207.856 171.886 210.635 171.394C213.414 170.902 217.61 170.5 217.61 170.5L217.791 167.991L218.645 166.922L218.422 169.424L219.332 169.245L219.211 166.203L220.608 164.454C220.608 164.454 222.296 162.952 219.788 159.996V160.061C219.761 160.019 219.736 159.974 219.707 159.931V159.918C219.291 159.274 218.961 158.073 219.566 155.943C220.662 152.093 221.299 148.599 221.299 148.599C221.299 148.599 223.745 139.238 220.805 134.809H220.935C220.633 134.185 220.421 133.523 220.302 132.841C220.287 132.761 220.274 132.678 220.262 132.593C222.437 132.468 224.572 132.074 226.314 131.225C226.307 131.216 225.259 109.002 224.391 105.465ZM196.773 89.9712V90.0159L196.326 90.0383L196.773 89.9712ZM195.24 90.1836C195.166 90.1999 195.097 90.2328 195.038 90.2797C194.846 90.5517 194.725 90.8677 194.687 91.1986L193.99 91.0421C193.99 91.0421 193.5 90.937 192.796 90.8185L192.463 90.4832C193.379 90.4072 194.332 90.2954 195.24 90.1836V90.1836Z" fill="url(#paint1_linear_484_614)"/>
<path d="M218.319 166.234L218.053 169.402L218.945 169.223L218.811 165.787L218.319 166.234Z" fill="#DBD8E3"/>
<path d="M197.967 151.192C196.892 154.255 197.196 158.389 197.437 160.396C197.527 161.139 197.609 161.59 197.609 161.59C197.609 161.59 196.002 165.252 195.868 165.391C195.734 165.53 191.137 168.335 191.137 168.335L187.924 170.211C187.924 170.211 184.665 168.783 186.227 168.291C186.547 168.163 186.834 167.967 187.07 167.716C188.635 166.229 190.6 162.534 190.6 162.534C190.6 162.534 190.734 160.658 191.226 159.766C191.718 158.874 191.539 149.499 191.539 149.499L191.577 134.218V132.226L197.692 132.271C197.731 132.947 197.819 133.62 197.956 134.283C198.175 135.428 198.46 136.56 198.808 137.673C199.885 141.158 199.438 146.995 197.967 151.192Z" fill="#FFB0B1"/>
<path opacity="0.1" d="M197.609 161.59C197.609 161.59 196.002 165.252 195.868 165.391C195.734 165.53 191.137 168.335 191.137 168.335L187.924 170.211C187.924 170.211 184.665 168.783 186.227 168.291C186.547 168.163 186.834 167.967 187.07 167.716L187.209 168.693L188.28 168.648L197.446 160.401C197.527 161.139 197.609 161.59 197.609 161.59Z" fill="black"/>
<path d="M197.498 160.609L188.28 168.912L187.209 168.957L186.986 167.392C186.986 167.392 185.112 169.802 180.949 169.668C180.949 169.668 178.45 171.32 182.154 171.41C185.859 171.499 190.59 171.276 190.59 171.276C190.59 171.276 193.894 166.133 196.66 166.804V170.688H197.509V166.768C197.904 166.502 198.241 166.159 198.5 165.76C198.759 165.36 198.935 164.912 199.016 164.443C199.09 163.96 199.037 163.466 198.865 163.008C198.692 162.551 198.405 162.146 198.03 161.832C197.863 161.675 197.729 161.486 197.638 161.275C197.546 161.065 197.499 160.838 197.498 160.609V160.609Z" fill="#DBD8E3"/>
<path d="M219.169 155.967C218.574 158.091 218.898 159.288 219.305 159.929V159.943C219.827 160.735 220.19 161.621 220.374 162.552L220.409 162.753L216.215 168.868L213.939 169.762C213.939 169.762 210.279 168.512 210.948 168.154C211.115 168.067 211.377 167.602 211.677 166.96C212.571 165.027 213.805 161.458 213.805 161.458V161.429C213.935 159.956 214.14 158.487 214.368 157.025C214.778 154.394 214.026 147.935 214.026 147.935C214.026 147.935 213.758 140.08 213.177 138.294C212.914 137.386 212.74 136.454 212.656 135.513C212.535 134.395 212.508 133.474 212.508 133.474C212.508 133.474 214.918 130.12 219.336 133.742C219.689 134.031 220 134.368 220.26 134.744C223.311 139.086 220.854 148.65 220.854 148.65C220.854 148.65 220.239 152.129 219.169 155.967Z" fill="#FFB0B1"/>
<path opacity="0.1" d="M220.416 162.753L216.222 168.868L213.946 169.762C213.946 169.762 210.286 168.512 210.954 168.155C211.122 168.067 211.384 167.602 211.683 166.961C213.233 166.947 214.035 168.423 214.035 168.423L215.998 168.11C215.998 168.11 218.587 163.021 219.168 162.711C219.75 162.4 219.258 160.388 219.258 160.388V159.876C219.273 159.894 219.287 159.914 219.305 159.932V159.945C219.827 160.737 220.19 161.623 220.373 162.554L220.416 162.753Z" fill="black"/>
<path d="M214.169 168.555C214.169 168.555 213.051 166.502 210.91 167.26C210.91 167.26 209.705 169.72 208.499 170.118C207.294 170.516 207.697 171.857 210.42 171.367C213.143 170.878 217.248 170.473 217.248 170.473L217.427 167.971L220.195 164.446C220.195 164.446 221.844 162.95 219.39 160.005V160.517C219.39 160.517 219.882 162.529 219.3 162.84C218.719 163.151 216.139 168.242 216.139 168.242L214.169 168.555Z" fill="#DBD8E3"/>
<path opacity="0.1" d="M197.699 132.267C197.737 132.943 197.825 133.615 197.962 134.279C195.445 133.91 193.109 134.093 191.577 134.214V132.222L197.699 132.267Z" fill="black"/>
<path opacity="0.1" d="M220.508 135.3C220.508 135.3 216.931 135.475 212.665 135.511C212.544 134.393 212.517 133.472 212.517 133.472C212.517 133.472 214.927 130.118 219.345 133.74C219.698 134.029 220.009 134.366 220.269 134.742C220.338 134.932 220.418 135.119 220.508 135.3V135.3Z" fill="black"/>
<path d="M220.507 134.898C220.507 134.898 204.84 135.656 200.064 134.317C195.289 132.978 190.556 134.138 189.842 133.827C189.129 133.517 189.708 128.649 190.334 127.444C190.96 126.239 194.394 114.052 194.394 114.052L197.699 96.8239L201.18 95.8648L201.426 95.7955L207.491 94.1232L211.936 92.8958C211.936 92.8958 220.774 127.4 220.016 129.944C219.74 130.918 219.696 131.943 219.886 132.938C220.002 133.617 220.211 134.276 220.507 134.898V134.898Z" fill="#DBD8E3"/>
<path d="M186.18 85.0417C186.18 85.0417 183.05 88.3953 185.42 90.2644C187.79 92.1335 189.348 90.4433 189.348 90.4433L186.18 85.0417Z" fill="#C7DAF5"/>
<path opacity="0.1" d="M186.18 85.0417C186.18 85.0417 183.05 88.3953 185.42 90.2644C187.79 92.1335 189.348 90.4433 189.348 90.4433L186.18 85.0417Z" fill="black"/>
<path d="M211.468 62.9928C211.468 62.9928 211.102 63.3415 210.55 63.8557C209.763 64.5913 208.598 65.6667 207.565 66.5677C206.134 67.813 204.954 68.7274 205.376 67.9471C205.799 67.1669 205.718 65.8075 205.508 64.5354C205.492 64.4504 205.479 64.3655 205.463 64.2828C205.289 63.3485 205.059 62.4257 204.772 61.5194C204.772 61.5194 207.084 58.5325 208.363 57.3543C208.839 56.9071 209.172 56.7238 209.192 57.0346C209.215 57.4526 209.528 58.376 209.917 59.3552C209.928 59.3865 209.939 59.4156 209.953 59.4469C210.212 60.1176 210.505 60.8062 210.762 61.4009C211.155 62.3131 211.468 62.9928 211.468 62.9928Z" fill="#FFB0B1"/>
<path opacity="0.1" d="M209.953 59.4467C209.735 60.6152 209.208 61.7039 208.426 62.599C207.645 63.4941 206.637 64.1628 205.508 64.5352C205.33 63.5146 205.085 62.5071 204.772 61.5192C204.772 61.5192 209.125 55.8964 209.192 57.0344C209.208 57.4659 209.548 58.4228 209.953 59.4467Z" fill="black"/>
<path opacity="0.1" d="M205.075 66.0378L205.638 65.2441C205.638 65.2441 206.011 67.5201 207.384 66.5163C208.757 65.5124 208.824 74.0708 208.824 74.0708L207.351 96.0993L196.704 95.4621L197.006 84.8179L198.211 79.4521L201.191 71.6517L202.964 69.0739L205.075 66.0378Z" fill="black"/>
<path d="M208.824 74.2069L207.482 94.125L207.342 96.2355L201.406 95.88L201.182 95.8666L196.711 95.5983L197.013 84.9518L198.218 79.5861L201.198 71.7857L202.971 69.2079L205.081 66.1606L205.645 65.3691C205.645 65.3691 206.018 67.6451 207.391 66.6413L207.42 66.6211C208.761 65.7716 208.824 74.2069 208.824 74.2069Z" fill="#DBD8E3"/>
<path d="M198.367 77.7217C198.367 77.7217 197.833 78.8395 196.76 78.6584C195.687 78.4774 195.689 82.6827 195.689 82.6827C195.689 82.6827 194.976 83.3535 194.484 82.7722C193.992 82.1909 192.695 84.1561 192.695 84.1561L184.571 84.5138C184.571 84.5138 188.186 86.166 187.477 91.1651C187.477 91.1651 199.751 90.4049 200.154 89.2446C200.556 88.0842 198.367 77.7217 198.367 77.7217Z" fill="white"/>
<path opacity="0.03" d="M198.367 77.7217C198.367 77.7217 197.833 78.8395 196.76 78.6584C195.687 78.4774 195.689 82.6827 195.689 82.6827C195.689 82.6827 194.976 83.3535 194.484 82.7722C193.992 82.1909 192.695 84.1561 192.695 84.1561L184.571 84.5138C184.571 84.5138 188.186 86.166 187.477 91.1651C187.477 91.1651 199.751 90.4049 200.154 89.2446C200.556 88.0842 198.367 77.7217 198.367 77.7217Z" fill="black"/>
<path d="M174.756 87.1409L176.898 88.9697L194.529 92.6743L192.342 90.443L174.756 87.1409Z" fill="white"/>
<path d="M205.108 66.742C204.815 67.1892 203.977 69.4785 203.277 71.4773C202.694 73.1429 202.206 74.6073 202.206 74.6073C202.206 74.6073 201.068 82.0165 200.487 83.3557C199.906 84.6948 200.221 89.9175 200.221 89.9175L198.055 102.815C198.055 102.815 197.073 109.467 195.557 113.44C194.062 117.35 192.396 119.183 192.344 119.241C193.015 118.334 196.671 100.461 196.671 100.461L197.878 77.9206C197.878 77.9206 198.055 75.7788 198.233 73.9477C198.412 72.1167 202.034 69.6172 202.034 69.6172L205.526 64.6516C205.877 65.1211 205.643 65.9394 205.108 66.742Z" fill="white"/>
<path d="M196.002 95.7105C196.002 95.7105 190.859 95.4869 188.369 92.4955C185.878 89.5041 194.126 91.3016 194.126 91.3016L196.27 91.7935L196.002 95.7105Z" fill="#FFB0B1"/>
<path opacity="0.1" d="M220.016 129.946C219.74 130.92 219.696 131.945 219.886 132.94C214.277 133.337 208.276 131.822 208.276 131.822C207.158 132.85 204.214 134.366 204.214 134.366L202.608 114.468C201.582 111.785 201.18 97.7292 201.18 97.7292C201.18 97.7292 201.271 96.9936 201.403 95.8914C201.403 95.8646 201.403 95.8355 201.414 95.8087C201.815 92.7301 202.608 86.9507 202.997 86.1705C203.534 85.0973 201.347 82.2423 201.347 82.2423L202.342 73.7578L202.463 72.7338C204.56 71.797 206.168 68.8056 206.168 68.8056L207.402 66.6437C208.743 65.7829 208.812 74.2183 208.812 74.2183L207.471 94.1364L211.916 92.9089C211.916 92.9089 220.774 127.402 220.016 129.946Z" fill="black"/>
<path d="M225.773 131.321C219.658 134.357 208.544 131.544 208.544 131.544C207.427 132.573 204.482 134.089 204.482 134.089L202.875 114.191C201.851 111.508 201.448 97.452 201.448 97.452C201.448 97.452 202.74 86.9642 203.277 85.8933C203.434 85.5803 203.358 85.1153 203.172 84.6145C202.26 82.2308 201.924 79.6651 202.193 77.127L202.622 73.4806L202.74 72.4588C204.84 71.5198 206.447 68.5285 206.447 68.5285L207.565 66.57L209.622 62.9615L210.597 61.2534L210.762 61.4032L212.025 62.5479C212.025 62.5479 212.562 62.995 213.367 63.6658C215.117 65.1413 218.142 67.7392 219.703 69.3288C221.076 70.7284 221.509 76.1724 221.635 80.2705C221.717 82.969 221.668 85.084 221.668 85.084C220.284 87.3622 223.904 105.653 223.904 105.653C224.747 109.187 225.773 131.321 225.773 131.321Z" fill="white"/>
<path opacity="0.03" d="M214.035 68.4836C214.035 68.4836 209.839 76.4718 210.326 79.5079C210.814 82.544 212.2 85.9803 211.531 86.7829C211.302 87.087 211.005 87.3338 210.664 87.5041C210.323 87.6744 209.947 87.7635 209.566 87.7644C208.895 87.8091 207.107 89.0589 207.107 89.193C207.107 89.3272 205.454 89.3272 203.977 89.9532C202.499 90.5792 200.317 90.9347 200.317 90.9347C200.317 90.9347 196.069 90.8005 195.673 91.203C195.277 91.6054 194.871 94.0133 195.718 95.9337C196.565 97.8542 197.507 99.2873 198.217 99.5489C198.928 99.8105 203.44 98.2991 207.1 97.9414C210.76 97.5837 214.733 94.684 214.733 94.684C214.733 94.684 219.108 93.119 219.875 90.4875C220.642 87.8561 218.938 73.3932 218.938 73.3932C218.938 73.3932 217.65 66.6525 214.035 68.4836Z" fill="black"/>
<path opacity="0.03" d="M213.498 67.813C213.498 67.813 209.302 75.8035 209.794 78.8374C210.286 81.8712 211.667 85.3098 210.997 86.1146C210.768 86.419 210.471 86.6662 210.131 86.8365C209.79 87.0068 209.415 87.0957 209.034 87.0961C208.363 87.1408 206.574 88.3906 206.574 88.5247C206.574 88.6589 204.922 88.6589 203.444 89.2826C201.967 89.9064 199.785 90.2641 199.785 90.2641C199.785 90.2641 195.537 90.13 195.143 90.5324C194.75 90.9348 194.338 93.3449 195.188 95.2632C196.037 97.1814 196.976 98.6168 197.687 98.8784C198.398 99.1399 202.91 97.6286 206.57 97.2731C210.23 96.9176 214.203 94.0134 214.203 94.0134C214.203 94.0134 218.576 92.4484 219.334 89.8192C220.092 87.19 218.397 72.7227 218.397 72.7227C218.397 72.7227 217.114 65.9842 213.498 67.813Z" fill="black"/>
<path d="M213.903 68.0815C213.903 68.0815 209.707 76.072 210.199 79.1059C210.691 82.1397 212.072 85.5783 211.404 86.3809C211.175 86.686 210.878 86.9338 210.537 87.1045C210.196 87.2752 209.82 87.3643 209.439 87.3646C208.768 87.4093 206.979 88.6591 206.979 88.791C206.979 88.9229 205.329 88.9252 203.849 89.5512C202.369 90.1772 200.189 90.5326 200.189 90.5326C200.189 90.5326 195.941 90.3985 195.546 90.8009C195.15 91.2034 194.743 93.6135 195.59 95.5317C196.438 97.45 197.379 98.8853 198.09 99.1469C198.801 99.4084 203.313 97.8971 206.973 97.5394C210.632 97.1817 214.605 94.2819 214.605 94.2819C214.605 94.2819 218.981 92.7169 219.747 90.0855C220.514 87.454 218.822 72.9912 218.822 72.9912C218.822 72.9912 217.516 66.2617 213.903 68.0815Z" fill="white"/>
<path opacity="0.1" d="M213.812 89.513C213.812 89.513 210.458 88.8423 211.625 89.9602C212.792 91.078 212.785 92.0573 214.214 92.0126C215.643 91.9678 213.812 89.513 213.812 89.513Z" fill="black"/>
<path opacity="0.1" d="M219.479 113.565C219.479 113.565 217.963 114.591 220.863 116.956C223.763 119.322 219.479 113.565 219.479 113.565Z" fill="black"/>
<path opacity="0.1" d="M216.586 122C216.586 122.134 216.049 126.919 218.057 128.115C220.065 129.311 216.586 122 216.586 122Z" fill="black"/>
<path d="M184.709 84.5027C183.091 84.5586 179.594 85.0527 181.407 88.4353C183.01 91.4289 185.704 89.428 187.22 87.9099C186.85 86.4946 185.951 85.2751 184.709 84.5027V84.5027Z" fill="#FFB0B1"/>
<path d="M187.24 87.8837L187.308 87.8137L187.24 87.8837Z" fill="#FFB0B1"/>
<path opacity="0.1" d="M213.367 63.8023C211.65 64.9761 210.21 65.9665 209.928 66.1722C209.159 66.7423 207.692 70.0892 206.747 71.7973C205.993 73.1722 203.545 73.5255 202.622 73.6127L202.74 72.5909C204.84 71.6519 206.447 68.6605 206.447 68.6605L210.597 61.3855L212.025 62.6845C212.025 62.6845 212.562 63.1316 213.367 63.8023Z" fill="black"/>
<path d="M213.367 63.668C211.65 64.8418 210.21 65.8322 209.928 66.0401C209.159 66.608 207.692 69.9549 206.747 71.663C205.993 73.0379 203.545 73.3912 202.622 73.4784L202.74 72.4567C204.84 71.5176 206.447 68.5263 206.447 68.5263L210.597 61.2512L212.025 62.5457C212.025 62.5457 212.562 62.9884 213.367 63.668Z" fill="#DCE7FF"/>
<path d="M210.062 57.9713C210.063 59.3134 209.656 60.6241 208.895 61.7296C207.996 63.0366 206.659 63.9783 205.125 64.3835C203.592 64.7888 201.964 64.6309 200.536 63.9385C199.109 63.2461 197.978 62.065 197.347 60.6096C196.716 59.1542 196.628 57.5208 197.098 56.0059C197.569 54.491 198.566 53.195 199.911 52.3529C201.255 51.5108 202.857 51.1785 204.425 51.4162C205.993 51.654 207.424 52.4461 208.459 53.6488C209.493 54.8515 210.062 56.3851 210.062 57.9713V57.9713Z" fill="#FFB0B1"/>
<path opacity="0.1" d="M221.634 80.2727C220.726 79.7142 219.987 78.9198 219.495 77.9743C219.121 77.2366 218.873 76.3847 218.236 75.8616C217.661 75.3921 216.894 75.2781 216.179 75.0679C213.827 74.3726 211.855 72.2263 211.781 69.7759C211.746 68.6223 212.106 67.4709 211.942 66.3285C211.85 65.6819 211.592 65.0699 211.196 64.5511C210.999 64.3029 210.783 64.0704 210.55 63.8558C210.237 63.5606 209.908 63.2745 209.622 62.9615C209.441 62.7677 209.284 62.5539 209.152 62.3243C209.046 62.1364 208.96 61.9378 208.895 61.7318C208.448 60.3636 208.855 58.7404 208.363 57.3565L208.336 57.2805C208.151 56.7886 207.773 56.2968 207.247 56.2588C206.722 56.2208 206.273 56.6567 205.772 56.8512C204.723 57.2581 203.592 56.5651 202.718 55.8586C201.844 55.1521 200.858 54.345 199.747 54.5015C199.011 54.6066 198.43 55.1074 197.752 55.3667C197.599 55.4259 197.441 55.4716 197.281 55.5031C197.854 54.0734 198.907 52.8879 200.259 52.1505C201.612 51.413 203.179 51.1695 204.691 51.4618C206.204 51.7541 207.567 52.564 208.547 53.7523C209.527 54.9406 210.063 56.4332 210.062 57.9736C210.063 58.4387 210.014 58.9026 209.917 59.3575C209.928 59.3888 209.939 59.4179 209.953 59.4492C210.212 60.1199 210.505 60.8085 210.762 61.4032L212.025 62.5479C212.025 62.5479 212.562 62.995 213.367 63.6657C215.117 65.1413 218.142 67.7392 219.703 69.3288C221.075 70.7328 221.505 76.1746 221.634 80.2727Z" fill="black"/>
<path d="M197.674 51.2822C197.994 50.6316 198.153 49.9027 198.535 49.2857C199.096 48.3914 200.076 47.819 201.082 47.4725C203.709 46.567 209.26 45.2524 210.919 47.4725C211.245 47.9196 211.516 48.416 211.967 48.7245C212.312 48.9593 212.727 49.0599 213.105 49.2365C214.163 49.7328 214.838 50.8149 215.198 51.9193C215.558 53.0238 215.665 54.2087 215.929 55.3467C216.267 56.8066 216.859 58.1905 217.449 59.5655C218.145 61.1886 218.882 62.8721 220.224 64.0191C222.055 65.5841 222.46 67.7997 224.159 69.5167C226.171 71.5557 226.106 74.9204 225.069 77.5921C224.932 77.9431 224.778 78.3098 224.832 78.6832C224.885 79.0565 225.163 79.3964 225.424 79.6937L226.524 80.9345C223.922 81.5628 220.977 80.2035 219.766 77.8179C219.392 77.0802 219.144 76.2306 218.505 75.7052C217.932 75.2357 217.163 75.1239 216.45 74.9137C214.098 74.2162 212.126 72.0677 212.052 69.6173C212.017 68.4659 212.376 67.3145 212.213 66.1743C212.122 65.5234 211.864 64.9071 211.464 64.3857C210.849 63.5831 209.922 63.0443 209.421 62.15C208.574 60.6543 209.217 58.7115 208.607 57.1062C208.419 56.6144 208.044 56.1225 207.518 56.0845C206.993 56.0465 206.543 56.4825 206.04 56.677C204.994 57.0839 203.863 56.393 202.989 55.6843C202.115 54.9756 201.129 54.1707 200.015 54.3295C199.28 54.4323 198.701 54.9331 198.023 55.1947C197.522 55.387 196.507 55.5591 196.069 55.1365C195.144 54.2847 197.288 52.0781 197.674 51.2822Z" fill="#591D4B"/>
<path opacity="0.1" d="M220.386 77.08C220.011 76.3422 219.765 75.4926 219.125 74.9695C218.553 74.5 217.784 74.386 217.069 74.1758C214.719 73.4805 212.747 71.332 212.671 68.8816C212.635 67.7302 212.995 66.5766 212.834 65.4364C212.741 64.7896 212.483 64.1777 212.085 63.659C211.468 62.8563 210.54 62.3175 210.042 61.4232C209.194 59.9298 209.838 57.9869 209.226 56.3795C209.04 55.8898 208.662 55.398 208.139 55.3577C207.616 55.3175 207.162 55.7579 206.661 55.9524C205.615 56.3593 204.482 55.6663 203.61 54.9598C202.738 54.2533 201.747 53.4462 200.636 53.6027C199.901 53.7078 199.319 54.2086 198.644 54.4679C198.143 54.6602 197.126 54.8346 196.688 54.412C195.767 53.5177 197.911 51.3155 198.295 50.5241C198.615 49.8713 198.774 49.1447 199.158 48.5276C199.178 48.4941 199.201 48.4605 199.223 48.427C198.935 48.6653 198.687 48.9475 198.488 49.2632C198.105 49.8802 197.947 50.6046 197.627 51.2597C197.24 52.0511 195.096 54.26 196.019 55.1476C196.466 55.5724 197.473 55.398 197.973 55.2057C198.644 54.9441 199.23 54.4433 199.965 54.3405C201.083 54.1817 202.067 54.9888 202.939 55.6953C203.811 56.4018 204.951 57.0949 205.993 56.688C206.494 56.4935 206.932 56.0553 207.468 56.0955C208.005 56.1358 208.363 56.6254 208.557 57.1172C209.168 58.7225 208.524 60.6653 209.371 62.161C209.872 63.0397 210.8 63.5897 211.415 64.3968C211.815 64.9182 212.073 65.5344 212.163 66.1853C212.327 67.3255 211.967 68.4769 212.002 69.6283C212.076 72.0876 214.048 74.2272 216.4 74.9248C217.109 75.1349 217.882 75.2467 218.455 75.7162C219.096 76.2416 219.349 77.0912 219.716 77.829C220.927 80.2145 223.872 81.5738 226.474 80.9456L225.956 80.3598C223.7 80.3933 221.417 79.11 220.386 77.08Z" fill="black"/>
<path opacity="0.1" d="M204.974 66.8764C204.681 67.3236 203.843 69.613 203.143 71.6117C202.488 71.3568 201.893 69.7314 201.893 69.7314L205.385 64.7637C205.743 65.2555 205.508 66.0716 204.974 66.8764Z" fill="black"/>
<path d="M205.108 66.7424C204.815 67.1895 203.977 69.4789 203.277 71.4776C202.622 71.225 202.027 69.5974 202.027 69.5974L205.519 64.6318C205.877 65.1215 205.642 65.9397 205.108 66.7424Z" fill="#DCE7FF"/>
<path d="M184.803 89.5818L182.867 83.4761C182.844 83.4046 182.836 83.3293 182.842 83.2545C182.848 83.1797 182.869 83.1068 182.904 83.0402C182.938 82.9735 182.985 82.9143 183.043 82.8659C183.1 82.8176 183.167 82.781 183.238 82.7584V82.7584C183.382 82.7134 183.538 82.7272 183.672 82.7967C183.806 82.8662 183.907 82.9859 183.954 83.1296L185.89 89.2286L185.697 90.5052L184.803 89.5818Z" fill="#BE8B87"/>
<path opacity="0.1" d="M183.05 82.9401C183.195 82.8944 183.351 82.9078 183.486 82.9774C183.62 83.047 183.722 83.167 183.768 83.3112L185.704 89.4103L185.559 90.3672L185.699 90.5147L185.892 89.2381L183.944 83.1391C183.898 82.9954 183.797 82.8757 183.663 82.8062C183.529 82.7367 183.373 82.723 183.229 82.7679V82.7679C183.108 82.8073 183.003 82.886 182.932 82.9915C182.97 82.9711 183.009 82.9539 183.05 82.9401V82.9401Z" fill="white"/>
<path d="M184.803 89.5823L185.89 89.238L185.731 90.2844L185.698 90.5146L185.38 90.1837L184.803 89.5823Z" fill="#EFC8C4"/>
<path d="M185.38 90.1837C185.399 90.1598 185.422 90.14 185.449 90.1256C185.465 90.1156 185.483 90.1104 185.502 90.1104C185.52 90.1104 185.539 90.1156 185.554 90.1256C185.569 90.144 185.582 90.1642 185.592 90.1859C185.607 90.2106 185.627 90.2316 185.651 90.2475C185.675 90.2634 185.702 90.2736 185.731 90.2776L185.697 90.5012L185.38 90.1837Z" fill="#727A9C"/>
<path d="M182.856 85.6453C182.856 85.6453 186.739 85.6229 185.825 87.2751C184.911 88.9273 183.482 89.1263 183.482 89.1263L182.856 85.6453Z" fill="#FFB0B1"/>
<path d="M158.703 11.4978H158.536C151.864 11.4978 145.964 15.028 142.57 20.2372C139.176 15.028 133.276 11.4978 126.605 11.4978H126.437C121.431 11.5455 116.645 13.5672 113.121 17.1235C109.596 20.6798 107.617 25.4833 107.615 30.4903C107.615 36.7078 110.338 45.5299 115.648 52.7893C125.764 66.6217 142.57 78.7237 142.57 78.7237C142.57 78.7237 159.376 66.624 169.491 52.7893C174.803 45.5299 177.523 36.7078 177.523 30.4903C177.521 25.4837 175.543 20.6805 172.019 17.1243C168.494 13.568 163.709 11.5461 158.703 11.4978V11.4978ZM156.304 53.8535C155.544 53.8506 154.803 53.6181 154.178 53.1864C153.553 52.7546 153.073 52.144 152.801 51.4345H148.812C148.55 51.4328 148.294 51.3492 148.081 51.1953C147.868 51.0414 147.709 50.8249 147.625 50.576L146.4 46.8848L142.523 60.431C142.448 60.6918 142.29 60.921 142.073 61.0843C141.856 61.2476 141.592 61.3361 141.32 61.3365H141.242C140.959 61.3228 140.689 61.2123 140.477 61.0235C140.266 60.8347 140.125 60.579 140.08 60.2991L136.084 36.2696L133.165 50.4888C133.098 50.7589 132.942 50.9988 132.723 51.1702C132.504 51.3416 132.233 51.4347 131.955 51.4345H126.337C126.168 51.4416 126 51.4146 125.842 51.3551C125.685 51.2955 125.541 51.2047 125.419 51.088C125.297 50.9714 125.2 50.8313 125.134 50.6763C125.068 50.5212 125.034 50.3544 125.034 50.1858C125.034 50.0173 125.068 49.8504 125.134 49.6954C125.2 49.5403 125.297 49.4003 125.419 49.2836C125.541 49.167 125.685 49.0761 125.842 49.0166C126 48.9571 126.168 48.9301 126.337 48.9372H130.971L135.107 29.8195C135.175 29.5369 135.339 29.2866 135.571 29.1115C135.803 28.9363 136.089 28.8472 136.379 28.8593C136.67 28.8715 136.947 28.9841 137.164 29.178C137.38 29.3719 137.523 29.635 137.567 29.9224L141.647 54.4348L145.121 42.315C145.194 42.0597 145.346 41.8347 145.557 41.6735C145.768 41.5124 146.025 41.4237 146.29 41.4207H146.315C146.578 41.4208 146.834 41.5038 147.047 41.658C147.259 41.8121 147.418 42.0296 147.5 42.2792L149.716 48.9439H152.752C152.968 48.2881 153.36 47.7046 153.887 47.258C154.413 46.8114 155.053 46.5189 155.735 46.4128C156.418 46.3068 157.116 46.3913 157.753 46.657C158.39 46.9227 158.942 47.3594 159.347 47.9187C159.751 48.4781 159.994 49.1384 160.047 49.8267C160.1 50.5151 159.962 51.2048 159.648 51.8197C159.334 52.4346 158.856 52.9507 158.267 53.3112C157.678 53.6717 157.001 53.8625 156.311 53.8625L156.304 53.8535Z" fill="#DBD8E3"/>
<defs>
<linearGradient id="paint0_linear_484_614" x1="80.5582" y1="173.241" x2="80.5582" y2="35.668" gradientUnits="userSpaceOnUse">
<stop stop-color="#808080" stop-opacity="0.25"/>
<stop offset="0.54" stop-color="#808080" stop-opacity="0.12"/>
<stop offset="1" stop-color="#808080" stop-opacity="0.1"/>
</linearGradient>
<linearGradient id="paint1_linear_484_614" x1="49905.6" y1="103801" x2="49905.6" y2="33183.2" gradientUnits="userSpaceOnUse">
<stop stop-color="#808080" stop-opacity="0.25"/>
<stop offset="0.54" stop-color="#808080" stop-opacity="0.12"/>
<stop offset="1" stop-color="#808080" stop-opacity="0.1"/>
</linearGradient>
</defs>
</svg>
