<svg width="71" height="103" viewBox="0 0 71 103" fill="none" xmlns="http://www.w3.org/2000/svg">
<path fill-rule="evenodd" clip-rule="evenodd" d="M12.0983 18.6667H58.765V23.3333C58.765 25.9 60.865 28 63.4317 28C65.9983 28 68.0983 25.9 68.0983 23.3333V9.33333C68.0983 4.2 63.8983 0.0466666 58.765 0.0466666L12.0983 0C6.965 0 2.765 4.2 2.765 9.33333V23.3333C2.765 25.9 4.865 28 7.43167 28C9.99833 28 12.0983 25.9 12.0983 23.3333V18.6667ZM54.6583 69.44L69.4517 54.6467C71.2717 52.8267 71.2717 49.8867 69.4517 48.0667L54.6583 33.2733C52.8383 31.4533 49.8517 31.4533 48.0317 33.2733C46.2117 35.0933 46.2117 38.0333 48.0317 39.8533L59.5583 51.3333L48.0317 62.86C46.2117 64.68 46.2117 67.62 48.0317 69.44C49.8517 71.26 52.8383 71.26 54.6583 69.44ZM22.785 62.8133L11.305 51.3333L22.785 39.8533C24.605 38.0333 24.605 35.0933 22.785 33.2733C20.965 31.4533 17.9783 31.4533 16.1583 33.2733L1.365 48.0667C-0.455 49.8867 -0.455 52.8267 1.365 54.6467L16.1583 69.44C17.9783 71.26 20.965 71.26 22.785 69.44C24.6517 67.62 24.605 64.6333 22.785 62.8133ZM58.765 84H12.0983V79.3333C12.0983 76.7667 9.99833 74.6667 7.43167 74.6667C4.865 74.6667 2.765 76.7667 2.765 79.3333V93.3333C2.765 98.4667 6.965 102.667 12.0983 102.667H58.765C63.8983 102.667 68.0983 98.4667 68.0983 93.3333V79.3333C68.0983 76.7667 65.9983 74.6667 63.4317 74.6667C60.865 74.6667 58.765 76.7667 58.765 79.3333V84Z" fill="#EBEBEB"/>
<path fill-rule="evenodd" clip-rule="evenodd" d="M38.4313 49.8954L37.3337 51.0465C37.1747 51.2134 37.1747 51.472 37.3337 51.6388L38.4313 52.79C38.654 53.0236 39.0278 52.9151 39.1074 52.5981C39.1948 52.181 39.2426 51.7639 39.2426 51.3302C39.2426 50.9047 39.1948 50.4876 39.0994 50.0956C39.0278 49.7786 38.654 49.6618 38.4313 49.8954ZM41.7081 47.8099C41.5093 47.3511 40.9287 47.251 40.5946 47.6097C40.3879 47.8266 40.3481 48.1436 40.4594 48.4272C40.8253 49.3198 41.0321 50.2958 41.0321 51.3218C41.0321 52.3562 40.8253 53.3405 40.4515 54.2331C40.3401 54.5001 40.3799 54.8087 40.5787 55.0173C40.9048 55.3593 41.4536 55.2592 41.6525 54.8254C42.1535 53.741 42.4319 52.5231 42.4319 51.2384C42.4239 50.0288 42.1694 48.861 41.7081 47.8099ZM34.7966 51.3302L37.6519 48.3438C37.9621 48.0185 37.9621 47.4929 37.6519 47.1593L34.2399 43.5806C33.7388 43.0551 32.8798 43.4221 32.8798 44.1646V49.3198L29.786 46.0748C29.4758 45.7495 28.9747 45.7495 28.6645 46.0748C28.3543 46.4002 28.3543 46.9257 28.6645 47.251L32.5537 51.3302L28.6645 55.4093C28.3543 55.7346 28.3543 56.2602 28.6645 56.5855C28.9747 56.9108 29.4758 56.9108 29.786 56.5855L32.8798 53.3405V58.4958C32.8798 59.2382 33.7388 59.6136 34.2399 59.0881L37.6519 55.5011C37.9621 55.1757 37.9621 54.6502 37.6519 54.3165L34.7966 51.3302ZM34.4705 46.1833L35.9658 47.7515L34.4705 49.3198V46.1833ZM34.4705 56.4771V53.3405L35.9658 54.9088L34.4705 56.4771Z" fill="#EBEBEB"/>
</svg>
